<?xml version="1.0" encoding="utf-8"?>
<!-- Generator: Adobe Illustrator 24.0.3, SVG Export Plug-In . SVG Version: 6.00 Build 0)  -->
<svg version="1.1" id="Ebene_1" xmlns="http://www.w3.org/2000/svg" xmlns:xlink="http://www.w3.org/1999/xlink" x="0px" y="0px"
	 viewBox="0 0 270.1 43.6" style="enable-background:new 0 0 270.1 43.6;" xml:space="preserve">
<style type="text/css">
	.st0{fill:#FFFFFF;}
</style>
<g>
	<path class="st0" d="M69,28.9c0-1.7-1-2.7-2.8-2.7h-3.9v5.3h3.9C68,31.5,69,30.6,69,28.9 M71.2,28.9c0,2.7-1.7,4.5-4.9,4.5h-4v5.3
		h-2.2V24.3h6.1C69.5,24.3,71.2,26.2,71.2,28.9"/>
	<path class="st0" d="M74.3,32.6h5.8c-0.2-1.6-1.2-2.8-2.9-2.8C75.7,29.8,74.6,30.7,74.3,32.6 M82.2,34.2h-7.9
		c0.2,2.1,1.3,3.1,3,3.1c1.4,0,2.2-0.7,2.6-1.7h2c-0.5,2-2.2,3.4-4.7,3.4c-3,0-5-2.1-5-5.5c0-3.3,2-5.5,5-5.5c3.2,0,5,2.4,5,5.6
		V34.2z"/>
	<path class="st0" d="M89.6,28.2v1.9h-0.5c-2,0-3.3,1-3.3,3v5.7h-2V28.3h1.9v1.9c0.6-1.1,1.6-2,3.3-2C89.2,28.1,89.3,28.1,89.6,28.2
		"/>
	<path class="st0" d="M90.5,33.5c0-3.3,2-5.5,5-5.5c2.6,0,4.3,1.5,4.7,3.9h-2.1c-0.3-1.5-1.4-2.1-2.6-2.1c-1.7,0-2.9,1.2-2.9,3.7
		s1.3,3.7,2.9,3.7c1.3,0,2.4-0.7,2.6-2.2h2.1c-0.3,2.5-2.2,4-4.7,4C92.5,39,90.5,36.9,90.5,33.5"/>
	<path class="st0" d="M103.1,32.6h5.8c-0.2-1.6-1.2-2.8-2.9-2.8C104.5,29.8,103.4,30.7,103.1,32.6 M111,34.2h-7.9
		c0.2,2.1,1.3,3.1,3,3.1c1.4,0,2.2-0.7,2.6-1.7h2c-0.5,2-2.2,3.4-4.7,3.4c-3,0-5-2.1-5-5.5c0-3.3,2-5.5,5-5.5c3.2,0,5,2.4,5,5.6
		V34.2z"/>
	<path class="st0" d="M121.5,31.8v7h-2V32c0-1.5-0.8-2.2-2.2-2.2c-1.2,0-2.6,0.9-2.6,3v5.9h-2V28.3h1.9v1.6c0.7-1,1.8-1.8,3.3-1.8
		C120.1,28.1,121.5,29.4,121.5,31.8"/>
	<path class="st0" d="M126.4,30v6.3c0,0.6,0.3,0.9,1.2,0.9h0.9v1.6c-0.4,0-0.9,0.1-1.2,0.1c-1.9,0-2.9-0.6-2.9-2.4V30h-1.7v-1.7h1.7
		v-3h2v3h2.1V30H126.4z"/>
	<path class="st0" d="M137.7,33.5c0-2.4-1.2-3.7-3.1-3.7c-1.9,0-3.1,1.3-3.1,3.7s1.2,3.7,3.1,3.7C136.5,37.3,137.7,35.9,137.7,33.5
		 M129.4,33.5c0-3.3,2.1-5.5,5.2-5.5c3,0,5.2,2.1,5.2,5.5s-2.1,5.5-5.2,5.5C131.6,39,129.4,36.9,129.4,33.5"/>
	<path class="st0" d="M144.8,33.5c0-3.3,2-5.5,5-5.5c2.6,0,4.3,1.5,4.7,3.9h-2.1c-0.3-1.5-1.4-2.1-2.6-2.1c-1.7,0-2.9,1.2-2.9,3.7
		s1.3,3.7,2.9,3.7c1.3,0,2.4-0.7,2.6-2.2h2.1c-0.3,2.5-2.2,4-4.7,4C146.8,39,144.8,36.9,144.8,33.5"/>
	<path class="st0" d="M164.7,28.3v10.5h-1.9v-1.6c-0.7,1-1.8,1.8-3.3,1.8c-2.2,0-3.7-1.3-3.7-3.7v-7h2V35c0,1.5,0.8,2.2,2.2,2.2
		c1.3,0,2.6-0.9,2.6-3v-5.9H164.7z"/>
</g>
<rect x="166.8" y="24.3" class="st0" width="2" height="14.4"/>
<g>
	<path class="st0" d="M173.7,30v6.3c0,0.6,0.3,0.9,1.2,0.9h0.9v1.6c-0.4,0-0.9,0.1-1.2,0.1c-1.9,0-2.9-0.6-2.9-2.4V30H170v-1.7h1.7
		v-3h2v3h2.1V30H173.7z"/>
	<path class="st0" d="M186.1,28.3v10.5h-1.9v-1.6c-0.7,1-1.8,1.8-3.3,1.8c-2.2,0-3.7-1.3-3.7-3.7v-7h2V35c0,1.5,0.8,2.2,2.2,2.2
		c1.3,0,2.6-0.9,2.6-3v-5.9H186.1z"/>
	<path class="st0" d="M194,28.2v1.9h-0.5c-2,0-3.3,1-3.3,3v5.7h-2V28.3h1.9v1.9c0.6-1.1,1.6-2,3.3-2C193.6,28.1,193.8,28.1,194,28.2
		"/>
	<path class="st0" d="M201.9,34.6v-1.1c-0.3,0.2-0.7,0.4-1.3,0.4l-1.5,0.2c-1.7,0.2-2.2,0.8-2.2,1.7c0,1,0.6,1.6,1.9,1.6
		C200.4,37.4,201.9,36.6,201.9,34.6 M205,37.2v1.6c-0.3,0-0.7,0.1-1,0.1c-1.3,0-1.9-0.5-2-1.5c-0.7,1.1-1.9,1.7-3.4,1.7
		c-2.2,0-3.7-1.1-3.7-3.1c0-1.7,1-3,3.9-3.2l1.5-0.2c1-0.1,1.6-0.5,1.6-1.3c0-1-0.5-1.5-2.1-1.5c-1.6,0-2.3,0.5-2.4,1.9h-2
		c0.1-2.1,1.3-3.5,4.4-3.5c3,0,4.1,1.3,4.1,3.1v5.5c0,0.3,0.2,0.5,0.6,0.5H205z"/>
</g>
<rect x="206.1" y="24.3" class="st0" width="2" height="14.4"/>
<g>
	<path class="st0" d="M211.8,32.6h5.8c-0.2-1.6-1.2-2.8-2.9-2.8C213.2,29.8,212.1,30.7,211.8,32.6 M219.7,34.2h-7.9
		c0.2,2.1,1.3,3.1,3,3.1c1.4,0,2.2-0.7,2.6-1.7h2c-0.5,2-2.2,3.4-4.7,3.4c-3,0-5-2.1-5-5.5c0-3.3,2-5.5,5-5.5c3.2,0,5,2.4,5,5.6
		V34.2z"/>
</g>
<polygon class="st0" points="72.8,18.3 72.8,10 69.3,18.3 67.3,18.3 63.8,10 63.8,18.3 60.1,18.3 60.1,3.9 65,3.9 68.4,12 72,3.9 
	76.5,3.9 76.5,18.3 "/>
<g>
	<path class="st0" d="M79.4,18.3V3.9h3.2c0.3,0,0.6,0.3,0.6,0.6v13.8H79.4z"/>
	<path class="st0" d="M93.3,10H98c0.4,0,0.6,0.3,0.6,0.7v7.4c-1.3,0.3-3.4,0.5-4.9,0.5c-5.4,0-8.2-2.6-8.2-7.5
		c0-4.4,2.8-7.5,7.6-7.5c2.1,0,3.9,0.6,5.1,1.3l-1.5,2.5c-1-0.5-2.4-0.8-3.4-0.8c-2.7,0-4,1.8-4,4.4c0,2.8,1.5,4.5,4.2,4.5
		c0.5,0,1.1,0,1.6-0.1v-2.5h-1.8V10z"/>
	<path class="st0" d="M109.5,18.3l-1.7-4c-0.4-0.8-0.6-1.2-1.3-1.2H105v5.2h-3.6V4.4c0-0.3,0.3-0.6,0.6-0.6h5.1
		c2.8,0,5.2,0.6,5.2,4.2c0,1.6-0.9,3.3-2.6,3.6c0.8,0.3,1.7,1.3,2.1,2.5l1.6,4.2H109.5z M106.8,6.6H105v3.6h1.8
		c1.1,0,1.9-0.6,1.9-1.9C108.7,6.9,107.9,6.6,106.8,6.6"/>
	<path class="st0" d="M121.4,18.6c-4.7,0-7.2-3.3-7.2-7.5c0-4.1,2.5-7.5,7.2-7.5c4.4,0,6.9,3.3,6.9,7.5
		C128.3,15.2,125.8,18.6,121.4,18.6 M121.4,6.6c-1.9,0-3.3,1.4-3.3,4.4c0,3.1,1.4,4.4,3.3,4.4c1.7,0,3-1.4,3-4.4
		C124.5,8,123.1,6.6,121.4,6.6"/>
	<path class="st0" d="M135.4,18.6c-2.4,0-4.7-0.9-5.7-1.6l1.6-2.9c0.9,0.6,2.7,1.4,4.3,1.4c0.9,0,2.1-0.2,2.1-1.2c0-1-1.3-1.3-3-1.8
		c-2.1-0.6-4.5-1.4-4.5-4.2c0-3,2.7-4.7,6.2-4.7c2.3,0,4.1,0.8,5,1.7l-2,2.3c-1-0.6-2-1.1-3.1-1.1c-1.4,0-2.1,0.5-2.1,1.3
		c0,0.7,1,1.1,2.2,1.5c2.2,0.7,5.2,1.4,5.2,4.3C141.6,16.5,139.2,18.6,135.4,18.6"/>
	<path class="st0" d="M48.1,4.1L48.1,4.1c-4.2-4.2-11-4.2-15.3,0l-5.1,5.1l7.6,7.6c4.7,4.6,4.2,10.5,4.1,11.2l8.6-8.6
		C52.3,15.1,52.3,8.3,48.1,4.1"/>
	<path class="st0" d="M33.2,19l-14-14C15,0.8,8.2,0.8,3.9,5c-4.2,4.2-4.2,11,0,15.3h0l21.6,21.6l7.6-7.6C37.4,30,37.4,23.2,33.2,19"
		/>
</g>
</svg>
