<?xml version="1.0" encoding="utf-8"?>
<!-- Generator: Adobe Illustrator 24.0.3, SVG Export Plug-In . SVG Version: 6.00 Build 0)  -->
<svg version="1.1" id="Ebene_1" xmlns="http://www.w3.org/2000/svg" xmlns:xlink="http://www.w3.org/1999/xlink" x="0px" y="0px"
	 viewBox="0 0 270.1 43.6" style="enable-background:new 0 0 270.1 43.6;" xml:space="preserve">
<style type="text/css">
	.st0{fill:#FFFFFF;}
</style>
<g>
	<g>
		<path class="st0" d="M59.1,31.6c0-4.6,2.8-7.5,6.7-7.5c3,0,5.6,1.6,6.3,5.1h-2.2c-0.6-2.3-2.2-3.1-4.1-3.1c-2.7,0-4.5,2.1-4.5,5.6
			s1.8,5.6,4.5,5.6c1.9,0,3.9-1.2,4.2-3.7h2.1c-0.4,3.8-3.3,5.6-6.3,5.6C61.9,39.1,59.1,36.2,59.1,31.6"/>
		<path class="st0" d="M82.5,28.4v10.4h-1.9v-1.5c-0.7,1-1.8,1.8-3.3,1.8c-2.2,0-3.6-1.3-3.6-3.7v-6.9h2v6.7c0,1.5,0.8,2.2,2.2,2.2
			c1.2,0,2.6-0.9,2.6-3v-5.8H82.5z"/>
	</g>
	<rect x="84.5" y="24.5" class="st0" width="2" height="14.3"/>
	<g>
		<path class="st0" d="M91.4,30.1v6.2c0,0.6,0.3,0.9,1.2,0.9h0.9v1.6c-0.4,0-0.9,0.1-1.2,0.1c-1.9,0-2.9-0.6-2.9-2.4v-6.4h-1.7v-1.6
			h1.7v-3h2v3h2.1v1.6H91.4z"/>
		<path class="st0" d="M103.7,28.4v10.4h-1.9v-1.5c-0.7,1-1.8,1.8-3.3,1.8c-2.2,0-3.6-1.3-3.6-3.7v-6.9h2v6.7c0,1.5,0.8,2.2,2.2,2.2
			c1.2,0,2.6-0.9,2.6-3v-5.8H103.7z"/>
		<path class="st0" d="M111.5,28.3v1.9H111c-2,0-3.2,1-3.2,3v5.6h-2V28.4h1.9v1.8c0.6-1.1,1.6-2,3.2-2
			C111.1,28.2,111.3,28.2,111.5,28.3"/>
		<path class="st0" d="M114.5,32.7h5.7c-0.2-1.6-1.2-2.8-2.8-2.8C115.9,29.8,114.8,30.8,114.5,32.7 M122.3,34.2h-7.8
			c0.2,2.1,1.3,3.1,3,3.1c1.3,0,2.2-0.7,2.6-1.7h2c-0.5,2-2.1,3.4-4.6,3.4c-2.9,0-5-2.1-5-5.4c0-3.2,2-5.4,4.9-5.4
			c3.1,0,4.9,2.4,4.9,5.5V34.2z"/>
		<path class="st0" d="M136.6,29c0-1.7-0.9-2.6-2.7-2.6H130v5.2h3.9C135.7,31.6,136.6,30.7,136.6,29 M138.8,29
			c0,2.6-1.7,4.5-4.9,4.5H130v5.3h-2.1V24.5h6.1C137.2,24.5,138.8,26.3,138.8,29"/>
		<path class="st0" d="M141.9,32.7h5.7c-0.2-1.6-1.2-2.8-2.8-2.8C143.3,29.8,142.2,30.8,141.9,32.7 M149.7,34.2h-7.8
			c0.2,2.1,1.3,3.1,3,3.1c1.3,0,2.2-0.7,2.6-1.7h2c-0.5,2-2.1,3.4-4.6,3.4c-2.9,0-5-2.1-5-5.4c0-3.2,2-5.4,4.9-5.4
			c3.1,0,4.9,2.4,4.9,5.5V34.2z"/>
		<path class="st0" d="M157,28.3v1.9h-0.5c-2,0-3.2,1-3.2,3v5.6h-2V28.4h1.9v1.8c0.6-1.1,1.6-2,3.2-2
			C156.6,28.2,156.8,28.2,157,28.3"/>
		<path class="st0" d="M158,33.6c0-3.3,2-5.4,4.9-5.4c2.6,0,4.3,1.5,4.6,3.9h-2c-0.3-1.4-1.3-2.1-2.6-2.1c-1.6,0-2.8,1.2-2.8,3.7
			s1.2,3.7,2.8,3.7c1.2,0,2.3-0.7,2.6-2.2h2c-0.3,2.4-2.2,3.9-4.6,3.9C160,39,158,36.9,158,33.6"/>
		<path class="st0" d="M170.5,32.7h5.7c-0.2-1.6-1.2-2.8-2.8-2.8C171.8,29.8,170.7,30.8,170.5,32.7 M178.2,34.2h-7.8
			c0.2,2.1,1.3,3.1,3,3.1c1.3,0,2.2-0.7,2.6-1.7h2c-0.5,2-2.1,3.4-4.6,3.4c-2.9,0-5-2.1-5-5.4c0-3.2,2-5.4,4.9-5.4
			c3.1,0,4.9,2.4,4.9,5.5V34.2z"/>
		<path class="st0" d="M188.6,31.8v6.9h-2v-6.7c0-1.5-0.8-2.2-2.2-2.2c-1.2,0-2.6,0.9-2.6,3v5.8h-2V28.4h1.9V30
			c0.7-1,1.8-1.8,3.3-1.8C187.3,28.2,188.6,29.5,188.6,31.8"/>
		<path class="st0" d="M193.5,30.1v6.2c0,0.6,0.3,0.9,1.2,0.9h0.9v1.6c-0.4,0-0.9,0.1-1.2,0.1c-1.9,0-2.9-0.6-2.9-2.4v-6.4h-1.7
			v-1.6h1.7v-3h2v3h2.1v1.6H193.5z"/>
		<path class="st0" d="M203.4,34.7v-1.1c-0.3,0.2-0.7,0.4-1.3,0.4l-1.4,0.2c-1.7,0.2-2.2,0.8-2.2,1.7c0,0.9,0.6,1.6,1.9,1.6
			C201.9,37.4,203.4,36.6,203.4,34.7 M206.5,37.2v1.5c-0.3,0-0.7,0.1-1,0.1c-1.3,0-1.9-0.5-2-1.5c-0.7,1.1-1.9,1.6-3.4,1.6
			c-2.2,0-3.7-1.1-3.7-3.1c0-1.7,1-2.9,3.9-3.2l1.5-0.2c1-0.1,1.5-0.5,1.5-1.3c0-1-0.5-1.5-2.1-1.5c-1.6,0-2.3,0.5-2.4,1.9h-2
			c0.1-2.1,1.3-3.5,4.4-3.5c3,0,4.1,1.2,4.1,3.1v5.5c0,0.3,0.2,0.5,0.6,0.5H206.5z"/>
		<path class="st0" d="M215.3,33.5c0-2.3-1.2-3.6-3-3.6c-1.8,0-3,1.4-3,3.6c0,2.2,1.2,3.6,3,3.6C214.1,37.2,215.3,35.8,215.3,33.5
			 M217.2,28.4v10c0,2.7-1.6,4.6-4.9,4.6c-2.8,0-4.4-1.4-4.6-3.5h2c0.2,1.2,1.1,1.8,2.6,1.8c1.9,0,2.9-1,2.9-2.9v-1.1
			c-0.7,1-1.9,1.6-3.3,1.6c-2.9,0-4.8-2.1-4.8-5.4c0-3.3,1.9-5.4,4.7-5.4c1.5,0,2.7,0.6,3.4,1.7v-1.5H217.2z"/>
		<path class="st0" d="M220.9,32.7h5.7c-0.2-1.6-1.2-2.8-2.8-2.8C222.2,29.8,221.1,30.8,220.9,32.7 M228.6,34.2h-7.8
			c0.2,2.1,1.3,3.1,3,3.1c1.3,0,2.2-0.7,2.6-1.7h2c-0.5,2-2.1,3.4-4.6,3.4c-2.9,0-5-2.1-5-5.4c0-3.2,2-5.4,4.9-5.4
			c3.1,0,4.9,2.4,4.9,5.5V34.2z"/>
	</g>
	<polygon class="st0" points="72.3,18.5 72.3,10.2 68.8,18.5 66.8,18.5 63.4,10.2 63.4,18.5 59.7,18.5 59.7,4.2 64.6,4.2 68,12.3 
		71.5,4.2 76,4.2 76,18.5 	"/>
	<g>
		<path class="st0" d="M78.8,18.5V4.2h3.1c0.3,0,0.5,0.3,0.5,0.6v13.7H78.8z"/>
		<path class="st0" d="M92.6,10.2h4.6c0.4,0,0.6,0.3,0.6,0.7v7.4c-1.3,0.3-3.3,0.5-4.9,0.5c-5.3,0-8.1-2.5-8.1-7.4
			c0-4.4,2.8-7.4,7.5-7.4c2.1,0,3.9,0.5,5,1.3l-1.4,2.5c-1-0.4-2.4-0.8-3.3-0.8c-2.7,0-3.9,1.8-3.9,4.4c0,2.8,1.5,4.5,4.1,4.5
			c0.5,0,1.1,0,1.6-0.1v-2.5h-1.8V10.2z"/>
		<path class="st0" d="M108.7,18.5l-1.7-3.9c-0.3-0.8-0.6-1.2-1.3-1.2h-1.5v5.1h-3.6V4.8c0-0.3,0.3-0.6,0.6-0.6h5.1
			c2.8,0,5.1,0.6,5.1,4.1c0,1.6-0.9,3.2-2.5,3.6c0.8,0.3,1.7,1.3,2.1,2.5l1.6,4.1H108.7z M106,6.9h-1.8v3.6h1.8
			c1.1,0,1.9-0.6,1.9-1.9C107.9,7.2,107.1,6.9,106,6.9"/>
		<path class="st0" d="M120.5,18.7c-4.7,0-7.1-3.3-7.1-7.4c0-4.1,2.5-7.4,7.1-7.4c4.4,0,6.9,3.3,6.9,7.4
			C127.3,15.4,124.8,18.7,120.5,18.7 M120.5,6.9c-1.9,0-3.3,1.4-3.3,4.4c0,3,1.4,4.4,3.3,4.4c1.7,0,3-1.4,3-4.4
			C123.5,8.3,122.1,6.9,120.5,6.9"/>
		<path class="st0" d="M134.4,18.7c-2.4,0-4.7-0.9-5.7-1.6l1.6-2.9c0.9,0.6,2.7,1.4,4.3,1.4c0.9,0,2.1-0.2,2.1-1.2
			c0-1-1.3-1.3-3-1.7c-2.1-0.6-4.5-1.4-4.5-4.2c0-3,2.7-4.7,6.1-4.7c2.3,0,4,0.8,4.9,1.7l-2,2.3c-1-0.6-2-1-3.1-1
			c-1.4,0-2.1,0.5-2.1,1.3c0,0.7,1,1.1,2.2,1.5c2.2,0.7,5.2,1.4,5.2,4.2C140.5,16.7,138.1,18.7,134.4,18.7"/>
		<path class="st0" d="M47.8,4.4L47.8,4.4c-4.2-4.2-10.9-4.2-15.1,0l-5,5l7.6,7.6c4.7,4.6,4.2,10.4,4,11.1l8.6-8.6
			C52,15.3,52,8.6,47.8,4.4"/>
		<path class="st0" d="M33.1,19.2L19.2,5.3C15,1.1,8.3,1.1,4.1,5.3c-4.2,4.2-4.2,10.9,0,15.1l21.4,21.4l7.6-7.6
			C37.3,30.1,37.3,23.3,33.1,19.2"/>
	</g>
</g>
</svg>
