<svg width="1878" height="346" viewBox="0 0 1878 346" fill="none" xmlns="http://www.w3.org/2000/svg">
<g clip-path="url(#clip0_1244_1833)">
<path d="M481.4 247.6C481.4 209.8 504.3 186.4 536.7 186.4C561 186.4 582.4 199.2 588 227.8H570.2C565.4 209.2 551.8 202 536.7 202C514.3 202 499.7 218.9 499.7 247.6C499.7 276.2 514.3 293.2 536.7 293.2C552.7 293.2 568.3 283.7 571.1 262.9H588.7C585.4 293.7 562.1 308.8 536.7 308.8C504.4 308.8 481.4 285.4 481.4 247.6Z" fill="black"/>
<path d="M673 221.3V306.2H657.2V293.5C651.8 301.9 642.6 308.1 630.6 308.1C612.3 308.1 600.8 297.6 600.8 278.2V221.3H617.2V275.9C617.2 288.1 623.6 293.7 635.1 293.7C645.3 293.7 656.5 286.3 656.5 269.2V221.3H673Z" fill="black"/>
<path d="M689.9 189.1H706.3V306.2H689.9V189.1Z" fill="black"/>
<path d="M746.3 234.8V285.8C746.3 290.7 748.8 293 756 293H763.4V306.2C759.8 306.5 756.3 306.7 753.4 306.7C738.1 306.7 729.9 301.4 729.9 287.3V234.8H716.2V221.3H729.9V197H746.3V221.3H763.4V234.8H746.3Z" fill="black"/>
<path d="M847.1 221.3V306.2H831.3V293.5C825.9 301.9 816.7 308.1 804.7 308.1C786.4 308.1 774.9 297.6 774.9 278.2V221.3H791.3V275.9C791.3 288.1 797.7 293.7 809.2 293.7C819.4 293.7 830.6 286.3 830.6 269.2V221.3H847.1Z" fill="black"/>
<path d="M911.1 220.2V235.8H907C890.7 235.8 880.5 243.9 880.5 260.1V306.1H864V221.2H879.8V236.3C884.4 227.1 892.8 219.9 906.3 219.9C907.8 220 909.3 220 911.1 220.2Z" fill="black"/>
<path d="M999.2 269.2H935.2C936.7 286.5 945.9 294.4 959.5 294.4C970.5 294.4 977.6 288.8 980.6 280.3H997.2C992.9 296.7 979.6 308.3 959.2 308.3C935.2 308.3 918.6 291.2 918.6 263.9C918.6 237.3 934.7 219.5 958.9 219.5C984.6 219.5 999.2 239.1 999.2 264.6V269.2ZM935.4 256.2H982.3C980.8 243 972.8 233.2 958.9 233.2C946.6 233.1 937.5 240.5 935.4 256.2Z" fill="black"/>
<path d="M1134.7 226.1C1134.7 247.8 1121.1 262.9 1094.6 262.9H1062.4V306.2H1044.8V189.1H1094.6C1121.1 189.1 1134.7 204.2 1134.7 226.1ZM1116.8 226.1C1116.8 212.5 1109.1 204.6 1094.3 204.6H1062.4V247.5H1094.3C1109.1 247.5 1116.8 239.7 1116.8 226.1Z" fill="black"/>
<path d="M1224 269.2H1160C1161.5 286.5 1170.7 294.4 1184.3 294.4C1195.3 294.4 1202.4 288.8 1205.4 280.3H1222C1217.7 296.7 1204.4 308.3 1184 308.3C1160 308.3 1143.4 291.2 1143.4 263.9C1143.4 237.3 1159.5 219.5 1183.7 219.5C1209.4 219.5 1224 239.1 1224 264.6V269.2ZM1160.2 256.2H1207.1C1205.6 243 1197.6 233.2 1183.7 233.2C1171.4 233.1 1162.3 240.5 1160.2 256.2Z" fill="black"/>
<path d="M1284 220.2V235.8H1279.9C1263.6 235.8 1253.4 243.9 1253.4 260.1V306.1H1237V221.2H1252.8V236.3C1257.4 227.1 1265.8 219.9 1279.3 219.9C1280.8 220 1282.2 220 1284 220.2Z" fill="black"/>
<path d="M1291.6 263.7C1291.6 236.6 1307.7 219.3 1332.1 219.3C1353.2 219.3 1367.3 231.6 1369.9 250.9H1353.1C1350.8 239.1 1342.1 233.6 1332 233.6C1318.5 233.6 1308.6 243.1 1308.6 263.7C1308.6 284.3 1318.8 293.8 1332 293.8C1342.2 293.8 1351.2 288.2 1353.2 275.9H1370C1367.4 296 1352.2 308.1 1332 308.1C1308 308.1 1291.6 290.9 1291.6 263.7Z" fill="black"/>
<path d="M1457.9 269.2H1393.9C1395.4 286.5 1404.6 294.4 1418.2 294.4C1429.2 294.4 1436.3 288.8 1439.3 280.3H1455.9C1451.6 296.7 1438.3 308.3 1417.9 308.3C1393.9 308.3 1377.3 291.2 1377.3 263.9C1377.3 237.3 1393.4 219.5 1417.6 219.5C1443.3 219.5 1457.9 239.1 1457.9 264.6V269.2ZM1394.1 256.2H1441C1439.5 243 1431.5 233.2 1417.6 233.2C1405.2 233.1 1396.2 240.5 1394.1 256.2Z" fill="black"/>
<path d="M1543.1 249.3V306.2H1526.7V251.6C1526.7 239.4 1520.3 233.8 1508.8 233.8C1498.8 233.8 1487.4 241.2 1487.4 258.3V306.2H1471V221.3H1486.8V234C1492.4 225.6 1501.4 219.4 1513.4 219.4C1531.7 219.3 1543.1 229.9 1543.1 249.3Z" fill="black"/>
<path d="M1583.2 234.8V285.8C1583.2 290.7 1585.7 293 1592.9 293H1600.3V306.2C1596.7 306.5 1593.2 306.7 1590.3 306.7C1575 306.7 1566.8 301.4 1566.8 287.3V234.8H1553.2V221.3H1566.8V197H1583.2V221.3H1600.3V234.8H1583.2Z" fill="black"/>
<path d="M1689.4 293.5V306.2C1686.9 306.5 1684 306.7 1681.3 306.7C1670.8 306.7 1666 302.9 1664.9 294.7C1659.1 303.6 1649.6 308.2 1637.3 308.2C1619 308.2 1607 299.3 1607 283C1607 269.3 1615.2 259 1638.9 256.7L1651.4 255.4C1659.6 254.4 1664.1 251.6 1664.1 244.7C1664.1 236.8 1660 232.5 1646.7 232.5C1633.4 232.5 1627.8 236.3 1627 247.8H1610.7C1611.7 230.7 1621.2 219.3 1646.7 219.3C1671 219.3 1680.2 229.5 1680.2 244.3V289.2C1680.2 291.8 1681.5 293.5 1684.8 293.5H1689.4ZM1664.1 272.6V263.7C1661.6 265.7 1658.2 266.7 1653.6 267.2L1641.8 268.5C1628.1 270.1 1624 274.9 1624 282.5C1624 290.2 1629.1 295.3 1639.8 295.3C1651.7 295.3 1664.1 288.6 1664.1 272.6Z" fill="black"/>
<path d="M1777.4 221.3V303C1777.4 325.2 1764.1 340.3 1736.9 340.3C1713.9 340.3 1701 329 1699.4 312H1715.8C1717.1 322 1724.5 327 1737 327C1752.5 327 1760.8 318.9 1760.8 303.3V294C1754.7 302.4 1745.5 307.2 1733.5 307.2C1710 307.2 1694.5 289.8 1694.5 263.3C1694.5 236.7 1709.8 219.4 1733.3 219.4C1745.8 219.4 1755.3 224.7 1761.4 233.4V221.4H1777.4V221.3ZM1761.4 263.2C1761.4 244.3 1751.7 233.4 1736.6 233.4C1721.5 233.4 1711.8 244.9 1711.8 263.2C1711.8 281.6 1721.5 293 1736.6 293C1751.7 293 1761.4 282.2 1761.4 263.2Z" fill="black"/>
<path d="M1871 269.2H1807C1808.5 286.5 1817.7 294.4 1831.3 294.4C1842.3 294.4 1849.4 288.8 1852.4 280.3H1869C1864.7 296.7 1851.4 308.3 1831 308.3C1807 308.3 1790.4 291.2 1790.4 263.9C1790.4 237.3 1806.5 219.5 1830.7 219.5C1856.4 219.5 1871 239.1 1871 264.6V269.2ZM1807.2 256.2H1854.1C1852.6 243 1844.6 233.2 1830.7 233.2C1818.3 233.1 1809.3 240.5 1807.2 256.2Z" fill="black"/>
<path d="M589.8 139.9V72.2998L560.8 139.9H544.7L516.2 72.2998V139.9H486.3V22.7998H526.4L553.9 88.8998L582.7 22.7998H619.8V139.9H589.8Z" fill="black"/>
<path d="M642.8 139.9V22.8999H668.4C670.7 22.8999 672.9 25.1999 672.9 27.5999V140H642.8V139.9Z" fill="black"/>
<path d="M756 72.5001H794C797 72.5001 798.7 75.0001 798.7 77.8001V138.3C788 140.7 771.3 142.1 758.8 142.1C715.1 142.1 692.1 121.3 692.1 81.2001C692.1 45.4001 715.1 20.6001 753.5 20.6001C770.4 20.6001 785.2 25.1001 794.7 31.5001L783 51.6001C774.8 47.9001 763.7 45.3001 755.8 45.3001C733.7 45.3001 723.4 59.9001 723.4 81.1001C723.4 103.7 735.3 117.7 757.4 117.7C761.4 117.7 766.4 117.5 770.5 116.9V96.4001H756V72.5001Z" fill="black"/>
<path d="M865.5 45.3998H850.8V74.6998H865.5C874.3 74.6998 881.2 69.9998 881.2 58.8998C881.2 47.5998 874.3 45.3998 865.5 45.3998ZM887.7 139.9L873.8 107.7C871 101.1 869 97.8998 863 97.8998H850.8V139.9H821.4V27.4998C821.4 25.0998 824.1 22.7998 826 22.7998H867.5C890.1 22.7998 909.4 27.4998 909.4 56.5998C909.4 69.5998 902.2 82.9998 888.6 85.6998C895.3 87.9998 902.1 96.6998 905.8 106L919.2 139.8H887.7V139.9Z" fill="black"/>
<path d="M984.3 45.4001C968.5 45.4001 957.3 56.7001 957.3 81.2001C957.3 106.1 968.5 117.3 984.3 117.3C997.8 117.3 1008.9 106.1 1008.9 81.2001C1008.9 56.6001 997.8 45.4001 984.3 45.4001ZM984.3 142.1C946 142.1 925.7 115 925.7 81.2001C925.7 47.6001 946 20.6001 984.3 20.6001C1020.2 20.6001 1040.5 47.7001 1040.5 81.2001C1040.4 115.1 1020.2 142.1 984.3 142.1Z" fill="black"/>
<path d="M1098.1 142.1C1078.3 142.1 1059.9 135 1051.7 129.4L1065 105.7C1072.4 110.2 1086.9 117.1 1100.3 117.1C1107.9 117.1 1117.4 115.6 1117.4 107.2C1117.4 99.2999 1106.7 96.8999 1092.7 92.8999C1075.8 88.0999 1056.2 81.2999 1056.2 58.5999C1056.2 34.0999 1077.9 20.3999 1106.3 20.3999C1125 20.3999 1139.5 26.9999 1146.9 34.0999L1130.7 52.5999C1122.7 47.7999 1114.4 44.0999 1105.2 44.0999C1094.1 44.0999 1087.8 48.2999 1087.8 54.3999C1087.8 60.4999 1095.8 63.5999 1106 66.5999C1123.9 72.0999 1148.3 77.7999 1148.3 101.2C1148.3 125.5 1129 142.1 1098.1 142.1Z" fill="black"/>
<path d="M388.6 24.4C354.4 -9.8 298.9 -9.8 264.7 24.4L223.5 65.6L285.5 127.6C324.1 165.1 319.5 212.7 318.5 218.6L388.7 148.4C422.8 114.2 422.8 58.7 388.6 24.4Z" fill="black"/>
<path d="M268 145.6L154.3 31.9C120 -2.3 64.4999 -2.3 30.2999 31.9C-3.9001 66.1 -3.9001 121.6 30.2999 155.8L206 331.5L268 269.5C302.2 235.3 302.2 179.9 268 145.6Z" fill="black"/>
</g>
<defs>
<clipPath id="clip0_1244_1833">
<rect width="1877.6" height="345.5" fill="white"/>
</clipPath>
</defs>
</svg>
