<svg version="1.1" id="Ebene_1" xmlns="http://www.w3.org/2000/svg" xmlns:xlink="http://www.w3.org/1999/xlink" x="0px" y="0px"
	 viewBox="0 0 270.1 43.6" style="enable-background:new 0 0 270.1 43.6;" xml:space="preserve">
<style type="text/css">
	.st0{fill:#FFFFFF;}
</style>
<g>
	<g>
		<path class="st0" d="M82.8,28.6V39h-1.9v-1.6c-0.7,1-1.8,1.8-3.3,1.8c-2.2,0-3.7-1.3-3.7-3.7v-7h2v6.7c0,1.5,0.8,2.2,2.2,2.2
			c1.3,0,2.6-0.9,2.6-3v-5.9H82.8z"/>
	</g>
	<rect x="85.1" y="24.6" class="st0" width="2" height="14.4"/>
	<g>
		<path class="st0" d="M92.3,30.2v6.3c0,0.6,0.3,0.9,1.2,0.9h0.9V39c-0.4,0-0.9,0.1-1.2,0.1c-1.9,0-2.9-0.6-2.9-2.4v-6.5h-1.7v-1.7
			h1.7v-3h2v3h2.1v1.7H92.3z"/>
		<path class="st0" d="M104.9,28.6V39h-1.9v-1.6c-0.7,1-1.8,1.8-3.3,1.8c-2.2,0-3.7-1.3-3.7-3.7v-7h2v6.7c0,1.5,0.8,2.2,2.2,2.2
			c1.3,0,2.6-0.9,2.6-3v-5.9H104.9z"/>
		<path class="st0" d="M112.9,28.4v1.9h-0.5c-2,0-3.3,1-3.3,3V39h-2V28.6h1.9v1.9c0.6-1.1,1.6-2,3.3-2
			C112.5,28.4,112.7,28.4,112.9,28.4"/>
		<path class="st0" d="M122.6,33.7c0-2.4-1.2-3.6-3.1-3.6c-1.9,0-3.1,1.3-3.1,3.7s1.2,3.7,3.1,3.7C121.4,37.5,122.6,36.1,122.6,33.7
			 M124.7,33.8c0,3.3-1.9,5.5-4.8,5.5c-1.5,0-2.7-0.6-3.4-1.7V43h-2V28.6h1.9v1.6c0.7-1.2,1.9-1.8,3.5-1.8
			C122.8,28.3,124.7,30.4,124.7,33.8"/>
		<path class="st0" d="M132.3,28.4v1.9h-0.5c-2,0-3.3,1-3.3,3V39h-2V28.6h1.9v1.9c0.6-1.1,1.6-2,3.3-2
			C131.9,28.4,132.1,28.4,132.3,28.4"/>
		<path class="st0" d="M141.7,33.8c0-2.4-1.2-3.7-3.1-3.7c-1.9,0-3.1,1.3-3.1,3.7s1.2,3.7,3.1,3.7C140.4,37.5,141.7,36.2,141.7,33.8
			 M133.4,33.8c0-3.3,2.1-5.5,5.2-5.5c3,0,5.2,2.1,5.2,5.5s-2.1,5.5-5.2,5.5C135.5,39.2,133.4,37.1,133.4,33.8"/>
		<path class="st0" d="M153.7,37.3V39h-8.6v-1.4l4.5-5.7c0.4-0.5,0.9-1.1,1.3-1.7c-0.7,0-1.5,0-2.2,0h-3.5v-1.7h8.2V30l-4.5,5.7
			c-0.4,0.5-0.9,1.1-1.3,1.7c0.7,0,1.5,0,2.2,0H153.7z"/>
		<path class="st0" d="M157.1,32.9h5.8c-0.2-1.6-1.2-2.8-2.9-2.8C158.4,30,157.3,30.9,157.1,32.9 M164.9,34.5H157
			c0.2,2.1,1.3,3.1,3,3.1c1.4,0,2.2-0.7,2.6-1.7h2c-0.5,2-2.2,3.4-4.7,3.4c-3,0-5-2.1-5-5.5c0-3.3,2-5.5,5-5.5c3.2,0,5,2.4,5,5.5
			V34.5z"/>
		<path class="st0" d="M175.6,32v7h-2v-6.7c0-1.5-0.8-2.2-2.2-2.2c-1.2,0-2.6,0.9-2.6,3V39h-2V28.6h1.9v1.6c0.7-1,1.8-1.8,3.3-1.8
			C174.2,28.3,175.6,29.6,175.6,32"/>
		<path class="st0" d="M180.7,30.2v6.3c0,0.6,0.3,0.9,1.2,0.9h0.9V39c-0.4,0-0.9,0.1-1.2,0.1c-1.9,0-2.9-0.6-2.9-2.4v-6.5H177v-1.7
			h1.7v-3h2v3h2.1v1.7H180.7z"/>
	</g>
	<polygon class="st0" points="73.1,18.6 73.1,10.2 69.5,18.6 67.5,18.6 64,10.2 64,18.6 60.3,18.6 60.3,4.2 65.3,4.2 68.6,12.3 
		72.2,4.2 76.7,4.2 76.7,18.6 	"/>
	<g>
		<path class="st0" d="M79.6,18.6V4.2h3.1c0.3,0,0.6,0.3,0.6,0.6v13.8H79.6z"/>
		<path class="st0" d="M93.5,10.3h4.7c0.4,0,0.6,0.3,0.6,0.7v7.4c-1.3,0.3-3.4,0.5-4.9,0.5c-5.4,0-8.2-2.6-8.2-7.5
			c0-4.4,2.8-7.5,7.5-7.5c2.1,0,3.9,0.6,5.1,1.3l-1.5,2.5c-1-0.5-2.4-0.8-3.3-0.8c-2.7,0-4,1.8-4,4.4c0,2.8,1.5,4.5,4.2,4.5
			c0.5,0,1.1,0,1.6-0.1v-2.5h-1.8V10.3z"/>
		<path class="st0" d="M109.7,18.6l-1.7-4c-0.3-0.8-0.6-1.2-1.3-1.2h-1.5v5.2h-3.6V4.7c0-0.3,0.3-0.6,0.6-0.6h5.1
			c2.8,0,5.2,0.6,5.2,4.2c0,1.6-0.9,3.2-2.6,3.6c0.8,0.3,1.7,1.3,2.1,2.5l1.6,4.2H109.7z M107,6.9h-1.8v3.6h1.8
			c1.1,0,1.9-0.6,1.9-1.9C108.9,7.2,108,6.9,107,6.9"/>
		<path class="st0" d="M121.6,18.8c-4.7,0-7.2-3.3-7.2-7.5c0-4.1,2.5-7.5,7.2-7.5c4.4,0,6.9,3.3,6.9,7.5
			C128.5,15.5,126,18.8,121.6,18.8 M121.6,6.9c-1.9,0-3.3,1.4-3.3,4.4c0,3.1,1.4,4.4,3.3,4.4c1.7,0,3-1.4,3-4.4
			C124.6,8.3,123.2,6.9,121.6,6.9"/>
		<path class="st0" d="M135.5,18.8c-2.4,0-4.7-0.9-5.7-1.6l1.6-2.9c0.9,0.6,2.7,1.4,4.3,1.4c0.9,0,2.1-0.2,2.1-1.2
			c0-1-1.3-1.3-3-1.8c-2.1-0.6-4.5-1.4-4.5-4.2c0-3,2.7-4.7,6.2-4.7c2.3,0,4.1,0.8,5,1.7l-2,2.3c-1-0.6-2-1-3.1-1
			c-1.4,0-2.1,0.5-2.1,1.3c0,0.7,1,1.1,2.2,1.5c2.2,0.7,5.2,1.4,5.2,4.3C141.7,16.8,139.4,18.8,135.5,18.8"/>
		<path class="st0" d="M48.3,4.4L48.3,4.4c-4.2-4.2-11-4.2-15.2,0L28,9.4l7.6,7.6c4.7,4.6,4.2,10.5,4.1,11.2l8.6-8.6
			C52.5,15.4,52.5,8.6,48.3,4.4"/>
		<path class="st0" d="M33.5,19.3l-14-14c-4.2-4.2-11-4.2-15.2,0c-4.2,4.2-4.2,11,0,15.2l21.6,21.6l7.6-7.6
			C37.7,30.3,37.7,23.5,33.5,19.3"/>
	</g>
</g>
</svg>
