<svg width="1756" height="333" viewBox="0 0 1756 333" fill="none" xmlns="http://www.w3.org/2000/svg">
<g clip-path="url(#clip0_1244_1834)">
<path d="M571.6 227.3C571.6 249 557.9 264.1 531.5 264.1H499.3V307.4H481.7V190.3H531.5C557.9 190.3 571.6 205.4 571.6 227.3ZM553.7 227.3C553.7 213.7 546 205.8 531.2 205.8H499.3V248.7H531.2C545.9 248.7 553.7 240.9 553.7 227.3Z" fill="black"/>
<path d="M580.3 265C580.3 237.9 597.6 220.6 622.4 220.6C647.1 220.6 664.3 237.9 664.3 265C664.3 292.1 647 309.4 622.4 309.4C597.6 309.4 580.3 292.1 580.3 265ZM647.2 265C647.2 245.6 637.3 234.7 622.4 234.7C607.3 234.7 597.4 245.6 597.4 265C597.4 284.4 607.3 295.3 622.4 295.3C637.4 295.2 647.2 284.4 647.2 265Z" fill="black"/>
<path d="M749.4 222.5V307.4H733.6V294.7C728.2 303.1 719 309.3 707 309.3C688.7 309.3 677.2 298.8 677.2 279.4V222.5H693.6V277.1C693.6 289.3 700 294.9 711.5 294.9C721.7 294.9 732.9 287.5 732.9 270.4V222.5H749.4Z" fill="black"/>
<path d="M813.3 221.4V237H809.2C792.9 237 782.7 245.1 782.7 261.3V307.3H766.3V222.4H782.1V237.5C786.7 228.3 795.1 221.1 808.6 221.1C810 221.2 811.5 221.2 813.3 221.4Z" fill="black"/>
<path d="M821.7 253.9H869.9V268.2H821.7V253.9Z" fill="black"/>
<path d="M879.6 265C879.6 237.9 895.7 220.6 920.1 220.6C941.2 220.6 955.3 232.9 957.9 252.2H941.1C938.8 240.4 930.1 234.9 920 234.9C906.5 234.9 896.6 244.4 896.6 265C896.6 285.6 906.8 295.1 920 295.1C930.2 295.1 939.2 289.5 941.2 277.2H958C955.4 297.3 940.2 309.4 920 309.4C896.1 309.4 879.6 292.1 879.6 265Z" fill="black"/>
<path d="M1045.9 270.4H981.9C983.4 287.7 992.6 295.6 1006.2 295.6C1017.2 295.6 1024.3 290 1027.3 281.5H1043.9C1039.6 297.9 1026.3 309.5 1005.9 309.5C981.9 309.5 965.3 292.4 965.3 265.1C965.3 238.5 981.4 220.7 1005.6 220.7C1031.3 220.7 1045.9 240.3 1045.9 265.8V270.4ZM982.1 257.4H1029C1027.5 244.2 1019.5 234.4 1005.6 234.4C993.2 234.4 984.2 241.8 982.1 257.4Z" fill="black"/>
<path d="M1131.1 250.5V307.4H1114.7V252.8C1114.7 240.6 1108.3 235 1096.8 235C1086.8 235 1075.4 242.4 1075.4 259.5V307.4H1059V222.5H1074.8V235.2C1080.4 226.8 1089.4 220.6 1101.4 220.6C1119.7 220.6 1131.1 231.1 1131.1 250.5Z" fill="black"/>
<path d="M1171.2 236V287C1171.2 291.9 1173.7 294.2 1180.9 294.2H1188.3V307.4C1184.7 307.7 1181.2 307.9 1178.3 307.9C1163 307.9 1154.8 302.6 1154.8 288.5V236H1141.2V222.5H1154.8V198.2H1171.2V222.5H1188.3V236H1171.2Z" fill="black"/>
<path d="M1227.4 265C1227.4 237.9 1243.5 220.6 1267.9 220.6C1289 220.6 1303.1 232.9 1305.7 252.2H1288.9C1286.6 240.4 1277.9 234.9 1267.8 234.9C1254.3 234.9 1244.4 244.4 1244.4 265C1244.4 285.6 1254.6 295.1 1267.8 295.1C1278 295.1 1287 289.5 1289 277.2H1305.8C1303.2 297.3 1288 309.4 1267.8 309.4C1243.9 309.4 1227.4 292.1 1227.4 265Z" fill="black"/>
<path d="M1389.2 222.5V307.4H1373.4V294.7C1368 303.1 1358.8 309.3 1346.8 309.3C1328.5 309.3 1317 298.8 1317 279.4V222.5H1333.4V277.1C1333.4 289.3 1339.8 294.9 1351.3 294.9C1361.5 294.9 1372.7 287.5 1372.7 270.4V222.5H1389.2Z" fill="black"/>
<path d="M1406.2 190.3H1422.6V307.4H1406.2V190.3Z" fill="black"/>
<path d="M1462.6 236V287C1462.6 291.9 1465.1 294.2 1472.3 294.2H1479.7V307.4C1476.1 307.7 1472.6 307.9 1469.7 307.9C1454.4 307.9 1446.2 302.6 1446.2 288.5V236H1432.6V222.5H1446.2V198.2H1462.6V222.5H1479.7V236H1462.6Z" fill="black"/>
<path d="M1563.4 222.5V307.4H1547.6V294.7C1542.2 303.1 1533 309.3 1521 309.3C1502.7 309.3 1491.2 298.8 1491.2 279.4V222.5H1507.6V277.1C1507.6 289.3 1514 294.9 1525.5 294.9C1535.7 294.9 1546.9 287.5 1546.9 270.4V222.5H1563.4Z" fill="black"/>
<path d="M1627.4 221.4V237H1623.3C1607 237 1596.8 245.1 1596.8 261.3V307.3H1580.4V222.4H1596.2V237.5C1600.8 228.3 1609.2 221.1 1622.7 221.1C1624.1 221.2 1625.5 221.2 1627.4 221.4Z" fill="black"/>
<path d="M1715.5 270.4H1651.5C1653 287.7 1662.2 295.6 1675.8 295.6C1686.8 295.6 1693.9 290 1696.9 281.5H1713.5C1709.2 297.9 1695.9 309.5 1675.5 309.5C1651.5 309.5 1634.9 292.4 1634.9 265.1C1634.9 238.5 1651 220.7 1675.2 220.7C1700.9 220.7 1715.5 240.3 1715.5 265.8V270.4ZM1651.7 257.4H1698.6C1697.1 244.2 1689.1 234.4 1675.2 234.4C1662.9 234.4 1653.8 241.8 1651.7 257.4Z" fill="black"/>
<path d="M1728.5 190.3H1744.9V307.4H1728.5V190.3Z" fill="black"/>
<path d="M585.2 141.1V73.5001L556.2 141.1H540.1L511.6 73.5001V141.1H481.6V24.1001H521.7L549.3 90.1001L578.1 24.1001H615.1V141.1H585.2Z" fill="black"/>
<path d="M638.1 141.1V24H663.7C666 24 668.2 26.3 668.2 28.7V141.1H638.1Z" fill="black"/>
<path d="M751.3 73.7003H789.3C792.3 73.7003 794 76.2003 794 79.0003V139.5C783.3 141.9 766.6 143.3 754.1 143.3C710.4 143.3 687.4 122.5 687.4 82.4003C687.4 46.6003 710.4 21.8003 748.8 21.8003C765.7 21.8003 780.5 26.3003 790 32.7003L778.2 52.8003C770 49.1003 758.9 46.5003 751 46.5003C728.9 46.5003 718.6 61.1003 718.6 82.3003C718.6 104.9 730.5 118.9 752.6 118.9C756.6 118.9 761.6 118.7 765.7 118.1V97.6003H751.2V73.7003H751.3Z" fill="black"/>
<path d="M860.8 46.6H846.1V75.9H860.8C869.6 75.9 876.5 71.2 876.5 60.1C876.6 48.8 869.6 46.6 860.8 46.6ZM883 141.1L869.1 108.9C866.3 102.3 864.3 99.1 858.3 99.1H846.1V141.1H816.7V28.7C816.7 26.3 819.4 24 821.3 24H862.8C885.4 24 904.7 28.7 904.7 57.8C904.7 70.8 897.5 84.2 883.9 86.9C890.6 89.2 897.4 97.9 901.1 107.2L914.5 141H883V141.1Z" fill="black"/>
<path d="M979.6 46.6003C963.8 46.6003 952.6 57.9003 952.6 82.4003C952.6 107.3 963.8 118.5 979.6 118.5C993.1 118.5 1004.2 107.3 1004.2 82.4003C1004.2 57.9003 993.1 46.6003 979.6 46.6003ZM979.6 143.3C941.3 143.3 921 116.2 921 82.4003C921 48.8003 941.3 21.8003 979.6 21.8003C1015.5 21.8003 1035.8 48.9003 1035.8 82.4003C1035.8 116.3 1015.5 143.3 979.6 143.3Z" fill="black"/>
<path d="M1093.4 143.3C1073.6 143.3 1055.2 136.2 1047 130.6L1060.3 106.9C1067.7 111.4 1082.2 118.3 1095.6 118.3C1103.2 118.3 1112.7 116.8 1112.7 108.4C1112.7 100.5 1102 98.1001 1088 94.1001C1071.1 89.3001 1051.5 82.5001 1051.5 59.8001C1051.5 35.3001 1073.2 21.6001 1101.6 21.6001C1120.3 21.6001 1134.8 28.2001 1142.2 35.3001L1125.9 54.0001C1117.9 49.2001 1109.6 45.5001 1100.4 45.5001C1089.3 45.5001 1083 49.7001 1083 55.8001C1083 61.9001 1091 65.0001 1101.2 68.0001C1119.1 73.5001 1143.5 79.2001 1143.5 102.6C1143.6 126.8 1124.3 143.3 1093.4 143.3Z" fill="black"/>
<path d="M383.9 25.6998C349.7 -8.50019 294.2 -8.50019 260 25.6998L218.8 66.8998L280.8 128.9C319.4 166.4 314.8 214 313.8 219.9L384 149.7C418.2 115.4 418.1 59.8998 383.9 25.6998Z" fill="black"/>
<path d="M263.3 146.9L149.6 33.1002C115.4 -1.0998 59.8998 -1.0998 25.6998 33.1002C-8.50019 67.3002 -8.50019 122.8 25.6998 157L201.4 332.7L263.4 270.7C297.6 236.6 297.6 181.1 263.3 146.9Z" fill="black"/>
</g>
<defs>
<clipPath id="clip0_1244_1834">
<rect width="1755.4" height="332.8" fill="white"/>
</clipPath>
</defs>
</svg>
