<?xml version="1.0" encoding="utf-8"?>
<!-- Generator: Adobe Illustrator 24.0.3, SVG Export Plug-In . SVG Version: 6.00 Build 0)  -->
<svg version="1.1" id="Ebene_1" xmlns="http://www.w3.org/2000/svg" xmlns:xlink="http://www.w3.org/1999/xlink" x="0px" y="0px"
	 viewBox="0 0 270.1 43.6" style="enable-background:new 0 0 270.1 43.6;" xml:space="preserve">
<style type="text/css">
	.st0{fill:#FFFFFF;}
</style>
<g>
	<g>
		<path class="st0" d="M68.8,29c0-1.7-0.9-2.6-2.8-2.6h-3.9v5.3H66C67.8,31.7,68.8,30.7,68.8,29 M71,29c0,2.7-1.7,4.5-4.9,4.5h-3.9
			v5.3h-2.2V24.5h6.1C69.3,24.5,71,26.4,71,29"/>
		<path class="st0" d="M80.2,33.7c0-2.4-1.2-3.7-3-3.7c-1.9,0-3.1,1.3-3.1,3.7s1.2,3.7,3.1,3.7C79,37.4,80.2,36,80.2,33.7 M72,33.7
			c0-3.3,2.1-5.4,5.2-5.4c3,0,5.1,2.1,5.1,5.4s-2.1,5.4-5.1,5.4C74.1,39.1,72,37,72,33.7"/>
		<path class="st0" d="M92.7,28.5v10.4h-1.9v-1.6c-0.7,1-1.8,1.8-3.3,1.8c-2.2,0-3.6-1.3-3.6-3.7v-7h2v6.7c0,1.5,0.8,2.2,2.2,2.2
			c1.2,0,2.6-0.9,2.6-3v-5.9H92.7z"/>
		<path class="st0" d="M100.6,28.3v1.9h-0.5c-2,0-3.2,1-3.2,3v5.6h-2V28.5h1.9v1.9c0.6-1.1,1.6-2,3.2-2
			C100.2,28.3,100.4,28.3,100.6,28.3"/>
	</g>
	<rect x="101.6" y="32.3" class="st0" width="5.9" height="1.8"/>
	<g>
		<path class="st0" d="M108.7,33.7c0-3.3,2-5.4,5-5.4c2.6,0,4.3,1.5,4.6,3.9h-2.1c-0.3-1.5-1.4-2.1-2.6-2.1c-1.7,0-2.9,1.2-2.9,3.7
			s1.3,3.7,2.9,3.7c1.2,0,2.4-0.7,2.6-2.2h2.1c-0.3,2.5-2.2,3.9-4.7,3.9C110.7,39.1,108.7,37,108.7,33.7"/>
		<path class="st0" d="M121.2,32.7h5.7c-0.2-1.6-1.2-2.8-2.9-2.8C122.6,29.9,121.5,30.8,121.2,32.7 M129.1,34.3h-7.8
			c0.2,2.1,1.3,3.1,3,3.1c1.3,0,2.2-0.7,2.6-1.7h2c-0.5,2-2.2,3.4-4.7,3.4c-2.9,0-5-2.1-5-5.4c0-3.3,2-5.4,4.9-5.4
			c3.1,0,4.9,2.4,4.9,5.5V34.3z"/>
		<path class="st0" d="M139.5,31.9v7h-2v-6.7c0-1.5-0.8-2.2-2.2-2.2c-1.2,0-2.6,0.9-2.6,3v5.9h-2V28.5h1.9V30c0.7-1,1.8-1.8,3.3-1.8
			C138.1,28.2,139.5,29.5,139.5,31.9"/>
		<path class="st0" d="M144.4,30.1v6.2c0,0.6,0.3,0.9,1.2,0.9h0.9v1.6c-0.4,0-0.9,0.1-1.2,0.1c-1.9,0-2.9-0.6-2.9-2.4v-6.4h-1.7
			v-1.7h1.7v-3h2v3h2.1v1.7H144.4z"/>
		<path class="st0" d="M151.3,33.7c0-3.3,2-5.4,5-5.4c2.6,0,4.3,1.5,4.6,3.9h-2.1c-0.3-1.5-1.4-2.1-2.6-2.1c-1.7,0-2.9,1.2-2.9,3.7
			s1.3,3.7,2.9,3.7c1.2,0,2.4-0.7,2.6-2.2h2.1c-0.3,2.5-2.2,3.9-4.7,3.9C153.3,39.1,151.3,37,151.3,33.7"/>
		<path class="st0" d="M171.1,28.5v10.4h-1.9v-1.6c-0.7,1-1.8,1.8-3.3,1.8c-2.2,0-3.6-1.3-3.6-3.7v-7h2v6.7c0,1.5,0.8,2.2,2.2,2.2
			c1.2,0,2.6-0.9,2.6-3v-5.9H171.1z"/>
	</g>
	<rect x="173.2" y="24.5" class="st0" width="2" height="14.3"/>
	<g>
		<path class="st0" d="M180.1,30.1v6.2c0,0.6,0.3,0.9,1.2,0.9h0.9v1.6c-0.4,0-0.9,0.1-1.2,0.1c-1.9,0-2.9-0.6-2.9-2.4v-6.4h-1.7
			v-1.7h1.7v-3h2v3h2.1v1.7H180.1z"/>
		<path class="st0" d="M192.5,28.5v10.4h-1.9v-1.6c-0.7,1-1.8,1.8-3.3,1.8c-2.2,0-3.6-1.3-3.6-3.7v-7h2v6.7c0,1.5,0.8,2.2,2.2,2.2
			c1.2,0,2.6-0.9,2.6-3v-5.9H192.5z"/>
		<path class="st0" d="M200.3,28.3v1.9h-0.5c-2,0-3.2,1-3.2,3v5.6h-2V28.5h1.9v1.9c0.6-1.1,1.6-2,3.2-2
			C199.9,28.3,200.1,28.3,200.3,28.3"/>
		<path class="st0" d="M203.3,32.7h5.7c-0.2-1.6-1.2-2.8-2.9-2.8C204.6,29.9,203.5,30.8,203.3,32.7 M211.1,34.3h-7.8
			c0.2,2.1,1.3,3.1,3,3.1c1.3,0,2.2-0.7,2.6-1.7h2c-0.5,2-2.2,3.4-4.7,3.4c-2.9,0-5-2.1-5-5.4c0-3.3,2-5.4,4.9-5.4
			c3.1,0,4.9,2.4,4.9,5.5V34.3z"/>
	</g>
	<rect x="212.7" y="24.5" class="st0" width="2" height="14.3"/>
	<polygon class="st0" points="72.6,18.5 72.6,10.2 69.1,18.5 67.1,18.5 63.6,10.2 63.6,18.5 59.9,18.5 59.9,4.2 64.9,4.2 68.2,12.2 
		71.8,4.2 76.3,4.2 76.3,18.5 	"/>
	<g>
		<path class="st0" d="M79.1,18.5V4.2h3.1c0.3,0,0.5,0.3,0.5,0.6v13.8H79.1z"/>
		<path class="st0" d="M93,10.2h4.7c0.4,0,0.6,0.3,0.6,0.7v7.4c-1.3,0.3-3.4,0.5-4.9,0.5c-5.3,0-8.2-2.5-8.2-7.5
			c0-4.4,2.8-7.4,7.5-7.4c2.1,0,3.9,0.6,5.1,1.3l-1.4,2.5c-1-0.5-2.4-0.8-3.3-0.8c-2.7,0-4,1.8-4,4.4c0,2.8,1.5,4.5,4.2,4.5
			c0.5,0,1.1,0,1.6-0.1v-2.5H93V10.2z"/>
		<path class="st0" d="M109.1,18.5l-1.7-3.9c-0.3-0.8-0.6-1.2-1.3-1.2h-1.5v5.1H101V4.7c0-0.3,0.3-0.6,0.6-0.6h5.1
			c2.8,0,5.1,0.6,5.1,4.1c0,1.6-0.9,3.2-2.5,3.6c0.8,0.3,1.7,1.3,2.1,2.5l1.6,4.1H109.1z M106.4,6.9h-1.8v3.6h1.8
			c1.1,0,1.9-0.6,1.9-1.9C108.3,7.2,107.5,6.9,106.4,6.9"/>
		<path class="st0" d="M120.9,18.8c-4.7,0-7.2-3.3-7.2-7.5c0-4.1,2.5-7.4,7.2-7.4c4.4,0,6.9,3.3,6.9,7.4
			C127.8,15.5,125.3,18.8,120.9,18.8 M120.9,6.9c-1.9,0-3.3,1.4-3.3,4.4c0,3,1.4,4.4,3.3,4.4c1.7,0,3-1.4,3-4.4
			C124,8.3,122.6,6.9,120.9,6.9"/>
		<path class="st0" d="M134.9,18.8c-2.4,0-4.7-0.9-5.7-1.6l1.6-2.9c0.9,0.6,2.7,1.4,4.3,1.4c0.9,0,2.1-0.2,2.1-1.2
			c0-1-1.3-1.3-3-1.8c-2.1-0.6-4.5-1.4-4.5-4.2c0-3,2.7-4.7,6.1-4.7c2.3,0,4.1,0.8,5,1.7l-2,2.3c-1-0.6-2-1-3.1-1
			c-1.4,0-2.1,0.5-2.1,1.3c0,0.7,1,1.1,2.2,1.5c2.2,0.7,5.2,1.4,5.2,4.2C141,16.7,138.7,18.8,134.9,18.8"/>
		<path class="st0" d="M48,4.4L48,4.4c-4.2-4.2-11-4.2-15.2,0l-5,5l7.6,7.6c4.7,4.6,4.2,10.4,4,11.1l8.6-8.6
			C52.2,15.3,52.2,8.5,48,4.4"/>
		<path class="st0" d="M33.2,19.2L19.3,5.3l0,0c-4.2-4.2-11-4.2-15.2,0c-4.2,4.2-4.2,11,0,15.2L25.6,42l7.6-7.6
			C37.4,30.2,37.4,23.4,33.2,19.2"/>
	</g>
</g>
</svg>
