<?xml version="1.0" encoding="UTF-8" standalone="no"?>
<!DOCTYPE svg PUBLIC "-//W3C//DTD SVG 1.1//EN" "http://www.w3.org/Graphics/SVG/1.1/DTD/svg11.dtd">
<svg width="100%" height="100%" viewBox="0 0 370 85" version="1.1" xmlns="http://www.w3.org/2000/svg" xmlns:xlink="http://www.w3.org/1999/xlink" xml:space="preserve" xmlns:serif="http://www.serif.com/" style="fill-rule:evenodd;clip-rule:evenodd;stroke-linejoin:round;stroke-miterlimit:2;">
    <g transform="matrix(1,0,0,1,-1055.43,-1711.48)">
        <g transform="matrix(1,0,0,1,1053.81,1711.47)">
            <path d="M134.675,59.5L146.975,76.85L141.675,76.85L131.5,62.45L126.4,67.35L126.4,76.85L122,76.85L122,47.575L126.4,47.575L126.4,62.25L141.375,47.575L146.975,47.575L134.675,59.5Z" style="fill-rule:nonzero;"/>
            <path d="M167.775,55.625L167.775,76.85L163.825,76.85L163.825,73.675C162.475,75.775 160.175,77.325 157.175,77.325C152.6,77.325 149.725,74.7 149.725,69.85L149.725,55.625L153.825,55.625L153.825,69.275C153.825,72.325 155.425,73.725 158.3,73.725C160.85,73.725 163.65,71.875 163.65,67.6L163.65,55.625L167.775,55.625Z" style="fill-rule:nonzero;"/>
            <rect x="172.425" y="47.575" width="4.1" height="29.275" style="fill-rule:nonzero;"/>
            <path d="M186.925,59L186.925,71.75C186.925,72.975 187.55,73.55 189.35,73.55L191.2,73.55L191.2,76.85C190.3,76.925 189.425,76.975 188.7,76.975C184.875,76.975 182.825,75.65 182.825,72.125L182.825,59L179.4,59L179.4,55.625L182.825,55.625L182.825,49.55L186.925,49.55L186.925,55.625L191.2,55.625L191.2,59L186.925,59Z" style="fill-rule:nonzero;"/>
            <path d="M212.55,55.625L212.55,76.85L208.6,76.85L208.6,73.675C207.25,75.775 204.95,77.325 201.95,77.325C197.375,77.325 194.5,74.7 194.5,69.85L194.5,55.625L198.6,55.625L198.6,69.275C198.6,72.325 200.2,73.725 203.075,73.725C205.625,73.725 208.425,71.875 208.425,67.6L208.425,55.625L212.55,55.625Z" style="fill-rule:nonzero;"/>
            <path d="M228.95,55.35L228.95,59.25L227.925,59.25C223.85,59.25 221.3,61.275 221.3,65.325L221.3,76.825L217.2,76.825L217.2,55.6L221.15,55.6L221.15,59.375C222.3,57.075 224.4,55.275 227.775,55.275C228.125,55.3 228.5,55.3 228.95,55.35Z" style="fill-rule:nonzero;"/>
            <path d="M252.95,66.25C252.95,73.025 249.125,77.35 243.25,77.35C240.2,77.35 237.875,76.075 236.35,73.9L236.35,84.925L232.25,84.925L232.25,55.625L236.2,55.625L236.2,58.825C237.725,56.475 240.1,55.125 243.275,55.125C249.125,55.15 252.95,59.45 252.95,66.25ZM248.675,66.075C248.675,61.225 246.25,58.675 242.475,58.675C238.7,58.675 236.275,61.4 236.275,66.25C236.275,71.1 238.7,73.825 242.475,73.825C246.25,73.825 248.675,70.925 248.675,66.075Z" style="fill-rule:nonzero;"/>
            <path d="M268.325,55.35L268.325,59.25L267.3,59.25C263.225,59.25 260.675,61.275 260.675,65.325L260.675,76.825L256.575,76.825L256.575,55.6L260.525,55.6L260.525,59.375C261.675,57.075 263.775,55.275 267.15,55.275C267.5,55.3 267.875,55.3 268.325,55.35Z" style="fill-rule:nonzero;"/>
            <path d="M270.625,66.25C270.625,59.475 274.95,55.15 281.15,55.15C287.325,55.15 291.625,59.475 291.625,66.25C291.625,73.025 287.3,77.35 281.15,77.35C274.95,77.35 270.625,73.025 270.625,66.25ZM287.375,66.25C287.375,61.4 284.9,58.675 281.175,58.675C277.4,58.675 274.925,61.4 274.925,66.25C274.925,71.1 277.4,73.825 281.175,73.825C284.9,73.8 287.375,71.1 287.375,66.25Z" style="fill-rule:nonzero;"/>
            <path d="M311.825,73.45L311.825,76.85L294.3,76.85L294.3,73.975L303.425,62.35C304.3,61.25 305.2,60.1 306.15,58.975C304.675,59.025 303.2,59.025 301.7,59.025L294.625,59.025L294.625,55.65L311.325,55.65L311.325,58.5L302.2,70.125C301.325,71.225 300.425,72.375 299.475,73.5C300.95,73.45 302.425,73.45 303.925,73.45L311.825,73.45Z" style="fill-rule:nonzero;"/>
            <path d="M334.65,67.6L318.65,67.6C319.025,71.925 321.325,73.9 324.725,73.9C327.475,73.9 329.25,72.5 330,70.375L334.15,70.375C333.075,74.475 329.75,77.375 324.65,77.375C318.65,77.375 314.5,73.1 314.5,66.275C314.5,59.625 318.525,55.175 324.575,55.175C331,55.175 334.65,60.075 334.65,66.45L334.65,67.6ZM318.7,64.35L330.425,64.35C330.05,61.05 328.05,58.6 324.575,58.6C321.5,58.6 319.225,60.45 318.7,64.35Z" style="fill-rule:nonzero;"/>
            <path d="M356.35,62.625L356.35,76.85L352.25,76.85L352.25,63.2C352.25,60.15 350.65,58.75 347.775,58.75C345.275,58.75 342.425,60.6 342.425,64.875L342.425,76.85L338.325,76.85L338.325,55.625L342.275,55.625L342.275,58.8C343.675,56.7 345.925,55.15 348.925,55.15C353.525,55.15 356.35,57.775 356.35,62.625Z" style="fill-rule:nonzero;"/>
            <path d="M366.8,59L366.8,71.75C366.8,72.975 367.425,73.55 369.225,73.55L371.075,73.55L371.075,76.85C370.175,76.925 369.3,76.975 368.575,76.975C364.75,76.975 362.7,75.65 362.7,72.125L362.7,59L359.3,59L359.3,55.625L362.7,55.625L362.7,49.55L366.8,49.55L366.8,55.625L371.075,55.625L371.075,59L366.8,59Z" style="fill-rule:nonzero;"/>
            <path d="M147.899,35.275L147.899,18.375L140.649,35.275L136.624,35.275L129.499,18.375L129.499,35.275L122.024,35.275L122.024,6.025L132.024,6.025L138.924,22.525L146.124,6.025L155.374,6.025L155.374,35.275L147.899,35.275Z" style="fill-rule:nonzero;"/>
            <path d="M161.15,35.275L161.15,6L167.55,6C168.125,6 168.675,6.575 168.675,7.175L168.675,35.275L161.15,35.275Z" style="fill-rule:nonzero;"/>
            <path d="M189.4,18.425L198.925,18.425C199.675,18.425 200.1,19.05 200.1,19.75L200.1,34.875C197.425,35.475 193.25,35.825 190.125,35.825C179.2,35.825 173.45,30.625 173.45,20.6C173.45,11.65 179.2,5.45 188.8,5.45C193.025,5.45 196.725,6.575 199.1,8.175L196.15,13.2C194.1,12.275 191.325,11.625 189.35,11.625C183.825,11.625 181.25,15.275 181.25,20.575C181.25,26.225 184.225,29.725 189.75,29.725C190.75,29.725 192,29.675 193.025,29.525L193.025,24.4L189.4,24.4L189.4,18.425Z" style="fill-rule:nonzero;"/>
            <path d="M216.825,11.65L213.15,11.65L213.15,18.975L216.825,18.975C219.025,18.975 220.75,17.8 220.75,15.025C220.75,12.2 219.025,11.65 216.825,11.65ZM222.35,35.275L218.875,27.225C218.175,25.575 217.675,24.775 216.175,24.775L213.125,24.775L213.125,35.275L205.775,35.275L205.775,7.175C205.775,6.575 206.45,6 206.925,6L217.3,6C222.95,6 227.775,7.175 227.775,14.45C227.775,17.7 225.975,21.05 222.575,21.725C224.25,22.3 225.95,24.475 226.875,26.8L230.225,35.25L222.35,35.25L222.35,35.275Z" style="fill-rule:nonzero;"/>
            <path d="M246.501,11.65C242.551,11.65 239.751,14.475 239.751,20.6C239.751,26.825 242.551,29.625 246.501,29.625C249.876,29.625 252.651,26.825 252.651,20.6C252.651,14.475 249.901,11.65 246.501,11.65ZM246.501,35.825C236.926,35.825 231.851,29.05 231.851,20.6C231.851,12.2 236.926,5.45 246.501,5.45C255.476,5.45 260.551,12.225 260.551,20.6C260.551,29.075 255.476,35.825 246.501,35.825Z" style="fill-rule:nonzero;"/>
            <path d="M274.951,35.825C270.001,35.825 265.401,34.05 263.351,32.65L266.676,26.725C268.526,27.85 272.151,29.575 275.501,29.575C277.401,29.575 279.776,29.2 279.776,27.1C279.776,25.125 277.101,24.525 273.601,23.525C269.376,22.325 264.476,20.625 264.476,14.95C264.476,8.825 269.901,5.4 277.001,5.4C281.676,5.4 285.301,7.05 287.151,8.825L283.101,13.5C281.101,12.3 279.026,11.375 276.726,11.375C273.951,11.375 272.376,12.425 272.376,13.95C272.376,15.475 274.376,16.25 276.926,17C281.401,18.375 287.501,19.8 287.501,25.65C287.526,31.7 282.701,35.825 274.951,35.825Z" style="fill-rule:nonzero;"/>
            <path d="M97.575,6.425C89.025,-2.125 75.15,-2.125 66.6,6.425L56.3,16.725L71.8,32.225C81.45,41.6 80.3,53.5 80.05,54.975L97.6,37.425C106.15,28.85 106.15,14.975 97.575,6.425Z" style="fill-rule:nonzero;"/>
            <path d="M67.45,36.725L39,8.275C30.45,-0.275 16.575,-0.275 8.025,8.275C-0.525,16.825 -0.525,30.7 8.025,39.25L51.95,83.175L67.45,67.675C76,59.15 76,45.275 67.45,36.725Z" style="fill-rule:nonzero;"/>
        </g>
    </g>
</svg>
