<?xml version="1.0" encoding="utf-8"?>
<!-- Generator: Adobe Illustrator 24.0.3, SVG Export Plug-In . SVG Version: 6.00 Build 0)  -->
<svg version="1.1" id="Ebene_1" xmlns="http://www.w3.org/2000/svg" xmlns:xlink="http://www.w3.org/1999/xlink" x="0px" y="0px"
	 viewBox="0 0 270.1 43.6" style="enable-background:new 0 0 270.1 43.6;" xml:space="preserve">
<style type="text/css">
	.st0{fill:#FFFFFF;}
</style>
<g>
	<polygon class="st0" points="66,30.3 72,38.8 69.4,38.8 64.4,31.8 61.9,34.2 61.9,38.8 59.8,38.8 59.8,24.5 61.9,24.5 61.9,31.7 
		69.3,24.5 72,24.5 	"/>
	<g>
		<path class="st0" d="M82.2,28.4v10.4h-1.9v-1.5c-0.7,1-1.8,1.8-3.3,1.8c-2.2,0-3.6-1.3-3.6-3.7v-7h2v6.7c0,1.5,0.8,2.2,2.2,2.2
			c1.2,0,2.6-0.9,2.6-3v-5.8H82.2z"/>
	</g>
	<rect x="84.4" y="24.5" class="st0" width="2" height="14.3"/>
	<g>
		<path class="st0" d="M91.5,30.1v6.2c0,0.6,0.3,0.9,1.2,0.9h0.9v1.6c-0.4,0-0.9,0.1-1.2,0.1c-1.9,0-2.9-0.6-2.9-2.4v-6.4h-1.7v-1.6
			h1.7v-3h2v3h2.1v1.6H91.5z"/>
		<path class="st0" d="M104,28.4v10.4h-1.9v-1.5c-0.7,1-1.8,1.8-3.3,1.8c-2.2,0-3.6-1.3-3.6-3.7v-7h2v6.7c0,1.5,0.8,2.2,2.2,2.2
			c1.2,0,2.6-0.9,2.6-3v-5.8H104z"/>
		<path class="st0" d="M112.1,28.3v1.9h-0.5c-2,0-3.2,1-3.2,3v5.6h-2V28.4h1.9v1.8c0.6-1.1,1.6-2,3.2-2
			C111.7,28.3,111.8,28.3,112.1,28.3"/>
		<path class="st0" d="M121.7,33.5c0-2.4-1.2-3.6-3-3.6c-1.8,0-3,1.3-3,3.7c0,2.4,1.2,3.7,3,3.7C120.5,37.3,121.7,35.9,121.7,33.5
			 M123.8,33.6c0,3.3-1.9,5.4-4.7,5.4c-1.5,0-2.6-0.6-3.4-1.7v5.4h-2V28.4h1.9V30c0.7-1.1,1.9-1.8,3.5-1.8
			C121.9,28.2,123.8,30.3,123.8,33.6"/>
		<path class="st0" d="M131.3,28.3v1.9h-0.5c-2,0-3.2,1-3.2,3v5.6h-2V28.4h1.9v1.8c0.6-1.1,1.6-2,3.2-2
			C130.9,28.3,131.1,28.3,131.3,28.3"/>
		<path class="st0" d="M140.6,33.6c0-2.4-1.2-3.7-3-3.7c-1.8,0-3.1,1.3-3.1,3.7c0,2.4,1.2,3.7,3.1,3.7
			C139.4,37.3,140.6,36,140.6,33.6 M132.4,33.6c0-3.3,2.1-5.4,5.1-5.4c3,0,5.1,2.1,5.1,5.4s-2.1,5.4-5.1,5.4
			C134.5,39.1,132.4,36.9,132.4,33.6"/>
		<path class="st0" d="M152.6,37.2v1.6H144v-1.4l4.5-5.7c0.4-0.5,0.9-1.1,1.3-1.6c-0.7,0-1.4,0-2.2,0h-3.5v-1.6h8.2v1.4l-4.5,5.7
			c-0.4,0.5-0.9,1.1-1.3,1.6c0.7,0,1.4,0,2.2,0H152.6z"/>
		<path class="st0" d="M155.9,32.7h5.7c-0.2-1.6-1.2-2.8-2.9-2.8C157.3,29.9,156.2,30.8,155.9,32.7 M163.7,34.3h-7.8
			c0.2,2.1,1.3,3.1,3,3.1c1.3,0,2.2-0.7,2.6-1.7h2c-0.5,2-2.2,3.4-4.6,3.4c-2.9,0-5-2.1-5-5.4c0-3.3,2-5.4,4.9-5.4
			c3.1,0,4.9,2.4,4.9,5.5V34.3z"/>
		<path class="st0" d="M174.3,31.9v7h-2v-6.7c0-1.5-0.8-2.2-2.2-2.2c-1.2,0-2.6,0.9-2.6,3v5.8h-2V28.4h1.9V30c0.7-1,1.8-1.8,3.3-1.8
			C172.9,28.2,174.3,29.5,174.3,31.9"/>
		<path class="st0" d="M179.4,30.1v6.2c0,0.6,0.3,0.9,1.2,0.9h0.9v1.6c-0.4,0-0.9,0.1-1.2,0.1c-1.9,0-2.9-0.6-2.9-2.4v-6.4h-1.7
			v-1.6h1.7v-3h2v3h2.1v1.6H179.4z"/>
	</g>
	<polygon class="st0" points="72.4,18.5 72.4,10.2 68.9,18.5 66.9,18.5 63.5,10.2 63.5,18.5 59.8,18.5 59.8,4.2 64.7,4.2 68.1,12.3 
		71.6,4.2 76.1,4.2 76.1,18.5 	"/>
	<g>
		<path class="st0" d="M78.9,18.5V4.2H82c0.3,0,0.5,0.3,0.5,0.6v13.7H78.9z"/>
		<path class="st0" d="M92.7,10.3h4.6c0.4,0,0.6,0.3,0.6,0.7v7.4c-1.3,0.3-3.4,0.5-4.9,0.5c-5.3,0-8.1-2.5-8.1-7.4
			c0-4.4,2.8-7.4,7.5-7.4c2.1,0,3.9,0.6,5,1.3l-1.4,2.5c-1-0.5-2.4-0.8-3.3-0.8c-2.7,0-4,1.8-4,4.4c0,2.8,1.5,4.5,4.1,4.5
			c0.5,0,1.1,0,1.6-0.1v-2.5h-1.8V10.3z"/>
		<path class="st0" d="M108.8,18.5l-1.7-3.9c-0.3-0.8-0.6-1.2-1.3-1.2h-1.5v5.1h-3.6V4.8c0-0.3,0.3-0.6,0.6-0.6h5.1
			c2.8,0,5.1,0.6,5.1,4.1c0,1.6-0.9,3.2-2.5,3.6c0.8,0.3,1.7,1.3,2.1,2.5l1.6,4.1H108.8z M106.1,6.9h-1.8v3.6h1.8
			c1.1,0,1.9-0.6,1.9-1.9C108.1,7.2,107.2,6.9,106.1,6.9"/>
		<path class="st0" d="M120.6,18.8c-4.7,0-7.2-3.3-7.2-7.4c0-4.1,2.5-7.4,7.2-7.4c4.4,0,6.9,3.3,6.9,7.4
			C127.5,15.5,125,18.8,120.6,18.8 M120.6,6.9c-1.9,0-3.3,1.4-3.3,4.4c0,3,1.4,4.4,3.3,4.4c1.7,0,3-1.4,3-4.4
			C123.6,8.3,122.3,6.9,120.6,6.9"/>
		<path class="st0" d="M134.5,18.8c-2.4,0-4.7-0.9-5.7-1.6l1.6-2.9c0.9,0.5,2.7,1.4,4.3,1.4c0.9,0,2.1-0.2,2.1-1.2
			c0-1-1.3-1.3-3-1.7c-2.1-0.6-4.5-1.4-4.5-4.2c0-3,2.7-4.7,6.1-4.7c2.3,0,4.1,0.8,5,1.7l-2,2.3c-1-0.6-2-1-3.1-1
			c-1.4,0-2.1,0.5-2.1,1.3c0,0.7,1,1.1,2.2,1.5c2.2,0.7,5.2,1.4,5.2,4.2C140.7,16.7,138.3,18.8,134.5,18.8"/>
		<path class="st0" d="M47.9,4.4L47.9,4.4c-4.2-4.2-11-4.2-15.1,0l-5,5l7.6,7.6c4.7,4.6,4.2,10.4,4,11.1l8.6-8.6
			C52,15.4,52,8.6,47.9,4.4"/>
		<path class="st0" d="M33.1,19.2L19.2,5.3c-4.2-4.2-11-4.2-15.1,0c-4.2,4.2-4.2,11,0,15.1l21.5,21.5l7.6-7.6
			C37.3,30.2,37.3,23.4,33.1,19.2"/>
	</g>
</g>
</svg>
