<?xml version="1.0" encoding="utf-8"?>
<!-- Generator: Adobe Illustrator 24.0.3, SVG Export Plug-In . SVG Version: 6.00 Build 0)  -->
<svg version="1.1" id="Ebene_1" xmlns="http://www.w3.org/2000/svg" xmlns:xlink="http://www.w3.org/1999/xlink" x="0px" y="0px"
	 viewBox="0 0 418.9 108" style="enable-background:new 0 0 418.9 108;" xml:space="preserve">
<style type="text/css">
	.st0{fill:#FFFFFF;}
	.st1{fill:#FF004E;}
</style>
<g>
	<polygon class="st0" points="129.5,28.4 129.5,86.8 117.4,86.8 117.4,28.4 90.7,28.4 90.7,18.1 157.5,18.1 157.5,28.4 	"/>
	<g>
		<path class="st0" d="M264.7,28.2V55h23.6c7.6,0,13.1-1,16.6-2.9c3.5-2,5.2-5.4,5.2-10.3c0-1.8-0.2-3.4-0.6-4.8
			c-0.4-1.4-1-2.6-1.8-3.5c-1.6-1.9-4.1-3.3-7.4-4.1c-3.4-0.8-7.6-1.2-12.8-1.2H264.7z M264.7,65.1v21.7h-11.8V18.1h34.6
			c12.3,0,21.2,1.9,26.5,5.8c5.4,3.9,8.1,9.9,8.1,18c0,7.7-2.8,13.5-8.3,17.4c-5.5,4-13.9,5.9-24.9,5.8H264.7z"/>
		<path class="st0" d="M359.4,88c-3.7-0.5-6.9-1.2-9.8-2.1c-5.7-1.9-10-4.7-13-8.6c-3-3.9-5-8.8-5.9-14.8h12.9
			c1.1,5.9,4,10,8.6,12.3c4.6,2.3,11.2,3.4,19.8,3.4c7.9,0,13.6-0.9,17.1-2.8c3.5-1.8,5.3-4.5,5.3-8.1c0-1.4-0.2-2.6-0.7-3.7
			c-0.5-1-1.1-1.9-2-2.6c-1.8-1.3-4.8-2.2-9-2.8c-4.2-0.5-9.9-1-17-1.4c-3.5-0.3-6.8-0.6-9.7-1c-2.9-0.4-5.6-0.9-8-1.6
			c-4.6-1.2-8.1-3.2-10.4-5.8c-2.3-2.7-3.5-6.3-3.5-11c0-6.4,2.8-11.5,8.3-15.3c5.5-3.8,13.9-5.8,24.9-5.8c11.6,0,20.6,1.9,27,5.8
			c6.4,3.8,10.3,9.7,11.7,17.6h-12.7c-0.8-4.9-3.5-8.3-8.1-10.3c-4.5-2-10.6-2.9-18.2-2.9c-7.5,0-12.9,0.9-16.1,2.8
			c-3.3,1.8-4.9,4.5-4.9,7.9c0,1.1,0.2,2.1,0.5,2.9c0.4,0.9,0.9,1.6,1.6,2.3c1.4,1.3,3.8,2.3,7.4,2.9c3.6,0.6,8.7,1.2,15.4,1.5
			c4.1,0.2,7.8,0.5,11.1,1c3.3,0.5,6.3,1,8.9,1.6c5.2,1.3,9.1,3.3,11.6,5.9c2.5,2.7,3.8,6.4,3.8,11.1c0,7-2.8,12.4-8.4,16.3
			c-5.6,3.9-14.4,5.8-26.3,5.8C367.2,88.7,363.1,88.5,359.4,88"/>
		<path class="st1" d="M242.4,64.4c1.1,6-3.5,11.2-9.4,11.2c-1.8,0-4-0.8-5.2-1.2c-6.7-2.4-19.2-0.7-48.2,21c-2,1.5-4.6,2.7-7.5,2.3
			c-4.1-0.6-7.2-3.8-7.9-8.1c-0.4-2.5,0.4-4.7,1.7-6.7c8.8-13.1-0.6-32.2-1.1-35.7c-0.2-1.5-0.4-2.2-0.4-3.3c0-4.7,2.8-7.5,6.4-9
			c4.3-1.9,12.2-7.9,13.4-17.2c0.6-5.2,2.9-10.4,9.4-10.4h23.1c4.6,0,8.7,4,8.7,8.7c0,5.2-2.9,10-9.4,10h-22.5
			c-12.3,0-15.2,8.3-11.1,13.6c5.7,6.6,20.8,15.3,21.4,5.3c0-7,5.2-9.4,9.4-9.4c5.2,0,9.4,4.1,9.4,9.4c0,5.8-4.7,10-11.1,9.4
			c-7-1.2-19.8-4.5-27.9-4.1c-3.4,0.2-6.9,1.9-8.6,4.1c-6.8,8.7,1.1,19.7,6.3,22.6c11.2,5.7,26.7,0.8,44.1-15.8
			c0.6-0.6,2.9-3.5,7-4.1C237.2,56.3,241.2,59.7,242.4,64.4"/>
	</g>
	<path class="st0" d="M38.4,88c-3.7-0.5-6.9-1.2-9.8-2.1c-5.7-1.9-10-4.7-13-8.6c-3-3.9-5-8.8-5.9-14.8h12.9c1.1,5.9,4,10,8.6,12.3
		c4.6,2.3,11.2,3.4,19.8,3.4c7.9,0,13.6-0.9,17.1-2.8c3.5-1.8,5.3-4.5,5.3-8.1c0-1.4-0.2-2.6-0.7-3.7c-0.5-1-1.1-1.9-2-2.6
		c-1.8-1.3-4.8-2.2-9-2.8c-4.2-0.5-9.9-1-17-1.4c-3.5-0.3-6.8-0.6-9.7-1c-2.9-0.4-5.6-0.9-8-1.6c-4.6-1.2-8.1-3.2-10.4-5.8
		c-2.3-2.7-3.5-6.3-3.5-11c0-6.4,2.8-11.5,8.3-15.3c5.5-3.8,13.9-5.8,24.9-5.8c11.6,0,20.6,1.9,27,5.8c6.4,3.8,10.3,9.7,11.7,17.6
		H72.4c-0.8-4.9-3.5-8.3-8.1-10.3c-4.5-2-10.6-2.9-18.2-2.9c-7.5,0-12.9,0.9-16.1,2.8c-3.3,1.8-4.9,4.5-4.9,7.9
		c0,1.1,0.2,2.1,0.5,2.9c0.4,0.9,0.9,1.6,1.6,2.3c1.4,1.3,3.8,2.3,7.4,2.9c3.6,0.6,8.7,1.2,15.4,1.5c4.1,0.2,7.8,0.5,11.1,1
		c3.3,0.5,6.3,1,8.9,1.6c5.2,1.3,9.1,3.3,11.6,5.9c2.5,2.7,3.8,6.4,3.8,11.1c0,7-2.8,12.4-8.4,16.3c-5.6,3.9-14.4,5.8-26.3,5.8
		C46.2,88.7,42.1,88.5,38.4,88"/>
</g>
</svg>
