<?xml version="1.0" encoding="utf-8"?>
<!-- Generator: Adobe Illustrator 24.0.3, SVG Export Plug-In . SVG Version: 6.00 Build 0)  -->
<svg version="1.1" id="Ebene_1" xmlns="http://www.w3.org/2000/svg" xmlns:xlink="http://www.w3.org/1999/xlink" x="0px" y="0px"
	 viewBox="0 0 674 674" style="enable-background:new 0 0 674 674;" xml:space="preserve">
<g>
	<path d="M559.2,112.4c-59.3-59.3-138.2-92-222.1-92s-162.8,32.7-222.1,92c-59.3,59.3-92,138.2-92,222.1s32.7,162.8,92,222.1
		c59.3,59.3,138.2,92,222.1,92s162.8-32.7,222.1-92s92-138.2,92-222.1S618.6,171.7,559.2,112.4z M538.7,536.1
		c-53.8,53.8-125.4,83.5-201.6,83.5S189.4,590,135.5,536.1C81.7,482.3,52,410.7,52,334.5s29.7-147.7,83.5-201.6
		C189.4,79.1,261,49.4,337.1,49.4s147.7,29.7,201.6,83.5c53.8,53.8,83.5,125.4,83.5,201.6S592.6,482.3,538.7,536.1z"/>
	<polygon points="276.8,346.7 412.2,346.7 412.2,310.6 276.8,310.6 276.8,205.9 440.4,205.9 440.4,167.5 232.1,167.5 232.1,494.8 
		446.2,494.8 446.2,456.4 276.8,456.4 	"/>
</g>
</svg>
