<?xml version="1.0" encoding="utf-8"?>
<!-- Generator: Adobe Illustrator 24.0.3, SVG Export Plug-In . SVG Version: 6.00 Build 0)  -->
<svg version="1.1" id="Ebene_1" xmlns="http://www.w3.org/2000/svg" xmlns:xlink="http://www.w3.org/1999/xlink" x="0px" y="0px"
	 viewBox="0 0 674 674" style="enable-background:new 0 0 674 674;" xml:space="preserve">
<g>
	<path d="M401.1,360.6c-6.1,5.1-6.9,14.3-1.8,20.4c2.9,3.4,7,5.2,11.1,5.2c3.3,0,6.6-1.1,9.3-3.4c25.3-21.2,39.8-52.4,39.8-85.4
		c0-61.4-50-111.4-111.4-111.4c-53,0-99,37.7-109.3,89.6c-1.6,7.9,3.5,15.5,11.4,17c7.9,1.6,15.5-3.5,17-11.4
		c7.6-38.4,41.6-66.3,80.8-66.3c45.4,0,82.4,37,82.4,82.4C430.6,321.9,419.9,344.9,401.1,360.6z"/>
	<path d="M539.6,119.8L468.1,191c-30.1-32.2-73-52.3-120.5-52.3c-78.6,0-146.7,55.8-161.9,132.8c-1.6,7.9,3.5,15.5,11.4,17
		c7.9,1.6,15.5-3.5,17-11.4c12.6-63.4,68.7-109.4,133.5-109.4c75,0,136.1,61.1,136.1,136.1c0,40-17.4,77.7-47.8,103.6
		c-7.4,4.5-42.7,28.2-54.8,71.8c-5,18.2-21.4,36.1-41.7,45.6c-19.8,9.2-40.8,9.7-59.2,1.3c-7.3-3.3-15.9-0.1-19.2,7.2
		c-3.3,7.3-0.1,15.9,7.2,19.2c12.6,5.8,26,8.6,39.6,8.6c14.7,0,29.5-3.3,43.8-10c28.1-13.1,50-37.7,57.4-64.1
		c9.9-35.9,42.2-54.9,42.5-55.1l1.1-0.6l1-0.8c37.5-31.5,59-77.6,59-126.5c0-33.1-9.8-63.9-26.6-89.8l73.9-73.6
		c5.7-5.7,5.7-14.8,0-20.5C554.5,114.2,545.3,114.2,539.6,119.8z"/>
	<path d="M285.5,393.4c-5.7-5.7-14.8-5.7-20.5,0L115.1,542.7c-5.7,5.7-5.7,14.8,0,20.5c2.8,2.8,6.6,4.3,10.3,4.3
		c3.7,0,7.4-1.4,10.2-4.2l149.9-149.3C291.2,408.2,291.2,399.1,285.5,393.4z"/>
	<path d="M555,26.9H119C66,26.9,22.9,70,22.9,123v428.1c0,53,43.1,96.1,96.1,96.1H555c53,0,96.1-43.1,96.1-96.1V123
		C651.1,70,608,26.9,555,26.9z M622.1,551.1c0,37-30.1,67.1-67.1,67.1H119c-37,0-67.1-30.1-67.1-67.1V123c0-37,30.1-67.1,67.1-67.1
		H555c37,0,67.1,30.1,67.1,67.1V551.1z"/>
</g>
</svg>
