<?xml version="1.0" encoding="utf-8"?>
<!-- Generator: Adobe Illustrator 24.0.3, SVG Export Plug-In . SVG Version: 6.00 Build 0)  -->
<svg version="1.1" id="Ebene_1" xmlns="http://www.w3.org/2000/svg" xmlns:xlink="http://www.w3.org/1999/xlink" x="0px" y="0px"
	 viewBox="0 0 674 674" style="enable-background:new 0 0 674 674;" xml:space="preserve">
<g>
	<path d="M559.1,112.4c-59.3-59.3-138.2-92-222.1-92s-162.8,32.7-222.1,92c-59.3,59.3-92,138.2-92,222.1s32.7,162.8,92,222.1
		s138.2,92,222.1,92s162.8-32.7,222.1-92c59.3-59.3,92-138.2,92-222.1S618.4,171.7,559.1,112.4z M538.6,536.1
		C484.8,590,413.2,619.6,337,619.6S189.3,590,135.4,536.1c-53.8-53.8-83.5-125.4-83.5-201.6s29.7-147.7,83.5-201.6
		C189.3,79.1,260.9,49.4,337,49.4s147.7,29.7,201.6,83.5c53.8,53.8,83.5,125.4,83.5,201.6S592.5,482.3,538.6,536.1z"/>
	<path d="M593.2,345.7l-67.5-38.2c17.3-11.6,28.8-31.4,28.8-53.8c0-35.7-29.1-64.8-64.8-64.8s-64.8,29.1-64.8,64.8
		c0,24.1,13.2,45.1,32.7,56.3l-21.2,12v-12.3l-70.2-39.7c19.6-12.2,32.7-34,32.7-58.8c0-38.2-31.1-69.3-69.3-69.3
		s-69.3,31.1-69.3,69.3c0,24.8,13.1,46.6,32.7,58.8l-70.2,39.7v29.9l-21.3-12.1c13.5-10,22.3-26.1,22.3-44.2
		c0-30.4-24.7-55.1-55.1-55.1s-55.1,24.7-55.1,55.1c0,18.7,9.4,35.3,23.7,45.2l-51.9,29.3c-7,3.9-9.4,12.8-5.5,19.8
		c2.7,4.7,7.6,7.4,12.6,7.4c2.4,0,4.9-0.6,7.1-1.9l70.5-39.9l52.5,29.7v120.9c0,8,6.5,14.5,14.5,14.5s14.5-6.5,14.5-14.5V326.5
		l77.8-44l77.8,44V347c0,0,0,0,0,0v146.6c0,8,6.5,14.5,14.5,14.5s14.5-6.5,14.5-14.5V355.2l57.4-32.5l85.1,48.2
		c2.3,1.3,4.7,1.9,7.1,1.9c5.1,0,10-2.6,12.6-7.4C602.6,358.5,600.2,349.6,593.2,345.7z M168.8,257.1c14.4,0,26.1,11.7,26.1,26.1
		s-11.7,26.1-26.1,26.1s-26.1-11.7-26.1-26.1S154.4,257.1,168.8,257.1z M329.6,170.7c22.2,0,40.3,18.1,40.3,40.3
		s-18.1,40.3-40.3,40.3s-40.3-18.1-40.3-40.3S307.4,170.7,329.6,170.7z M489.6,217.8c19.8,0,35.8,16.1,35.8,35.8
		c0,19.8-16.1,35.8-35.8,35.8c-19.8,0-35.8-16.1-35.8-35.8C453.8,233.9,469.9,217.8,489.6,217.8z"/>
</g>
</svg>
