<?xml version="1.0" encoding="utf-8"?>
<!-- Generator: Adobe Illustrator 24.0.3, SVG Export Plug-In . SVG Version: 6.00 Build 0)  -->
<svg version="1.1" id="Ebene_1" xmlns="http://www.w3.org/2000/svg" xmlns:xlink="http://www.w3.org/1999/xlink" x="0px" y="0px"
	 viewBox="0 0 674 674" style="enable-background:new 0 0 674 674;" xml:space="preserve">
<g>
	<path d="M538.5,121.2L456,203.4c-5.7,5.7-5.7,14.8,0,20.5c2.8,2.8,6.6,4.3,10.3,4.3c3.7,0,7.4-1.4,10.2-4.2l82.5-82.2
		c5.7-5.7,5.7-14.8,0-20.5C553.4,115.5,544.2,115.5,538.5,121.2z"/>
	<path d="M445,408.5c-7.9-1.1-15.2,4.5-16.3,12.4c-4,29.2-18.4,56.1-40.7,75.7c-22.5,19.8-51.3,30.6-81.2,30.6
		c-36.8,0-69.9-16.3-92.5-42l70.2-69.9c5.7-5.7,5.7-14.8,0-20.5s-14.8-5.7-20.5,0l-66.4,66.2c-8.9-17-13.9-36.3-13.9-56.7
		c0-30.9,11.5-60.4,32.3-83.1c20.7-22.6,48.9-36.6,79.3-39.4c8-0.7,13.8-7.8,13.1-15.8c-0.7-8-7.8-13.8-15.8-13.1
		c-37.6,3.5-72.4,20.7-98,48.7c-25.8,28.1-40,64.6-40,102.7c0,28.5,7.9,55.2,21.6,78L114,544c-5.7,5.7-5.7,14.8,0,20.5
		c2.8,2.8,6.6,4.3,10.3,4.3c3.7,0,7.4-1.4,10.2-4.2l59.1-58.9c27.9,31,68.2,50.5,113.1,50.5c37,0,72.7-13.4,100.4-37.9
		c27.5-24.2,45.3-57.4,50.2-93.5C458.4,416.9,452.9,409.6,445,408.5z"/>
	<path d="M523.6,393.1l-14.2,11.4L453,350.8c-3.5-3.3-8.4-4.7-13.1-3.7l-97.2,21.4V321h82.8c8,0,14.5-6.5,14.5-14.5
		s-6.5-14.5-14.5-14.5h-82.8v-48.1c1.8,0.2,3.7,0.2,5.6,0.2c36.9,0,67-30,67-67s-30-67-67-67s-67,30-67,67c0,24.3,13,45.6,32.4,57.3
		v152.2c0,4.4,2,8.6,5.4,11.3c3.4,2.8,7.9,3.8,12.2,2.9l107.3-23.7l60,57.1c2.8,2.7,6.4,4,10,4c3.2,0,6.4-1.1,9.1-3.2l24.1-19.4
		c6.2-5,7.2-14.1,2.2-20.4C539,389.1,529.8,388.1,523.6,393.1z M348.2,139.1c20.9,0,38,17,38,38s-17,38-38,38c-4.3,0-8.4-0.7-12.2-2
		c-1.4-0.9-3-1.6-4.7-2c-12.5-6.2-21.1-19.1-21.1-34C310.2,156.2,327.3,139.1,348.2,139.1z"/>
	<path d="M553.9,28.2H118c-53,0-96.1,43.1-96.1,96.1v428.1c0,53,43.1,96.1,96.1,96.1h435.9c53,0,96.1-43.1,96.1-96.1V124.3
		C650.1,71.3,606.9,28.2,553.9,28.2z M621.1,552.4c0,37-30.1,67.1-67.1,67.1H118c-37,0-67.1-30.1-67.1-67.1V124.3
		c0-37,30.1-67.1,67.1-67.1h435.9c37,0,67.1,30.1,67.1,67.1V552.4z"/>
</g>
</svg>
