<?xml version="1.0" encoding="utf-8"?>
<!-- Generator: Adobe Illustrator 24.0.3, SVG Export Plug-In . SVG Version: 6.00 Build 0)  -->
<svg version="1.1" id="Ebene_1" xmlns="http://www.w3.org/2000/svg" xmlns:xlink="http://www.w3.org/1999/xlink" x="0px" y="0px"
	 viewBox="0 0 220.4 194" style="enable-background:new 0 0 220.4 194;" xml:space="preserve">
<style type="text/css">
	.st0{fill:#FFFFFF;}
</style>
<g>
	<path class="st0" d="M107.7,17.1c-4.3-1.9-7.2,0.5-10.2,3.1C82.9,32.9,68.3,45.6,53.6,58c-1.8,1.5-4.7,2.6-7.1,2.6
		c-13.2,0.3-15.3,0.1-28.5,0.1c-7.4,0-9.9,2.5-9.9,10c0,17.5,0,35,0,52.5c0,7.6,2.2,9.9,9.8,9.9c12.7,0.1,14.3-0.2,27,0.2
		c2.8,0.1,6.2,1.3,8.4,3.1c15.1,12.8,29.9,25.9,45.1,38.6c2.2,1.8,6.1,2.9,8.9,2.4c4.4-0.9,5-5.2,5-9.2c0-23.6,0-47.3,0-70.9
		c0-23.3,0-46.6,0-69.9C112.3,23.2,112.1,19.2,107.7,17.1z"/>
	<path class="st0" d="M183.2,91.7L213.9,61c2.7-2.7,2.7-7.2,0-9.9s-7.2-2.7-9.9,0l-30.8,30.8l-30.8-30.8c-2.7-2.7-7.2-2.7-9.9,0
		s-2.7,7.2,0,9.9l30.8,30.8l-30.8,30.8c-2.7,2.7-2.7,7.2,0,9.9c1.4,1.4,3.2,2,5,2s3.6-0.7,5-2l30.8-30.8l30.8,30.8
		c1.4,1.4,3.2,2,5,2s3.6-0.7,5-2c2.7-2.7,2.7-7.2,0-9.9L183.2,91.7z"/>
</g>
</svg>
