<?xml version="1.0" encoding="utf-8"?>
<!-- Generator: Adobe Illustrator 24.0.3, SVG Export Plug-In . SVG Version: 6.00 Build 0)  -->
<svg version="1.1" id="Ebene_1" xmlns="http://www.w3.org/2000/svg" xmlns:xlink="http://www.w3.org/1999/xlink" x="0px" y="0px"
	 viewBox="0 0 220.4 194" style="enable-background:new 0 0 220.4 194;" xml:space="preserve">
<style type="text/css">
	.st0{fill:#FFFFFF;}
</style>
<g>
	<path class="st0" d="M107.5,17.4c-4.3-1.9-7.2,0.5-10.2,3.1C82.6,33.1,68.1,45.8,53.4,58.3c-1.8,1.5-4.7,2.6-7.1,2.6
		C33.1,61.1,31,61,17.8,61c-7.4,0-9.9,2.5-9.9,10c0,17.5,0,35,0,52.5c0,7.6,2.2,9.9,9.8,9.9c12.7,0.1,14.3-0.2,27,0.2
		c2.8,0.1,6.2,1.3,8.4,3.1c15.1,12.8,29.9,25.9,45.1,38.6c2.2,1.8,6.1,2.9,8.9,2.4c4.4-0.9,5-5.2,5-9.2c0-23.6,0-47.3,0-70.9
		c0-23.3,0-46.6,0-69.9C112.1,23.4,111.9,19.4,107.5,17.4z"/>
	<path class="st0" d="M178.4,22c-3.5-4.6-7.8-5.8-11.5-3.3c-3.8,2.6-3.8,7-0.8,11.9c5.2,8.5,11.2,16.7,14.8,25.9
		c15,38.3,10.1,74.4-14.1,107.7c-3.6,5-3.6,9.5,0.3,12.3c3.7,2.8,7.9,1.6,11.8-3.5c16.8-22.3,25-47.5,25.3-75.4
		C203.9,69.7,195.4,44.4,178.4,22z"/>
	<path class="st0" d="M172.1,69.3c-3.5-9.9-8.9-19.2-14.1-28.5c-2.6-4.6-6.9-5.1-10.6-2.4c-3.6,2.6-4.1,6.7-1.3,11
		c0.4,0.7,1,1.4,1.4,2.1c11.3,16.8,16,35.3,13.8,55.5c-1.5,14.2-6.5,27.1-14.8,38.7c-2.3,3.1-3.2,6.8-0.4,9.6
		c1.8,1.7,5.3,2.7,7.9,2.4c2-0.2,4.1-2.6,5.5-4.6c11.4-16.7,17.3-35.1,18.2-55.6C177,85.5,175.2,78.3,172.1,69.3z"/>
	<path class="st0" d="M137,62.1c-3.2-5-8.8-5.5-12.2-1.4c-2.7,3.3-1.9,6.7,0.1,10.2c10,17.6,10.1,35.4,0.5,53.2
		c-3,5.6-2.5,9.8,1.7,12.1c4.2,2.3,8.2,0.7,11.3-4.8c5.9-10.3,8.7-21.5,8.9-34.3C147.1,85.1,144.1,73,137,62.1z"/>
</g>
</svg>
